<svg id="Layer_1" data-name="Layer 1" xmlns="http://www.w3.org/2000/svg" viewBox="0 0 508.48 240"><defs><style>.cls-1,.cls-2{fill:#fff;}.cls-2{fill-rule:evenodd;}</style></defs><title>Artboard 2</title><path class="cls-1" d="M26.88,106H60.7v31.91a.89.89,0,0,1-.89.89h-32a.89.89,0,0,1-.89-.89Zm0-10.14a.89.89,0,0,1,.89-.89h32a.89.89,0,0,1,.89.89v8.35H26.86Zm.89,44.74h32a2.68,2.68,0,0,0,2.68-2.68V95.87a2.68,2.68,0,0,0-2.68-2.68h-32a2.68,2.68,0,0,0-2.68,2.68v42.07A2.68,2.68,0,0,0,27.77,140.62Z"/><path class="cls-1" d="M43.88,110.7h0a11.6,11.6,0,1,1-8.18,3.4,11.59,11.59,0,0,1,8.18-3.4Zm0,25a13.4,13.4,0,1,0-9.45-3.94,13.39,13.39,0,0,0,9.45,3.94Z"/><path class="cls-1" d="M43.88,116.21a6.06,6.06,0,1,1-6,6.08,6.06,6.06,0,0,1,6-6.08Zm0,13.93a7.85,7.85,0,1,0-7.82-7.85,7.85,7.85,0,0,0,7.82,7.85Z"/><path class="cls-1" d="M32.45,99.65a1,1,0,1,1-2,0,1,1,0,1,1,2,0"/><path class="cls-1" d="M36.53,99.65a1,1,0,1,1-2,0,1,1,0,1,1,2,0"/><path class="cls-1" d="M40.6,99.65a1,1,0,1,1-2,0,1,1,0,1,1,2,0"/><path class="cls-1" d="M54.47,43.75H33.11a.48.48,0,0,0-.5.5v1.26a.48.48,0,0,0,.5.5H54.52a.48.48,0,0,0,.5-.5V44.25a.55.55,0,0,0-.56-.5Zm9.73-4.39H23.38V16.68H64.25V39.36Zm.25-24.89H23.13a2,2,0,0,0-2,2V39.67a2,2,0,0,0,2,2H64.45a2,2,0,0,0,2-2V16.48A2,2,0,0,0,64.45,14.47Z"/><path class="cls-1" d="M407.1,18.53a28.76,28.76,0,0,0-20.39,8.27,1,1,0,0,1-.77.38.73.73,0,0,1-.66-.48.8.8,0,0,1,.22-.9h0a29,29,0,0,1,3.92-3.29,30.82,30.82,0,0,1,39.28,3.28.8.8,0,0,1,.11,1.21.82.82,0,0,1-1.23-.09h0a28.44,28.44,0,0,0-6.34-4.77,28.88,28.88,0,0,0-12.53-3.61c-.54,0-1.07,0-1.62,0Z"/><path class="cls-1" d="M407.17,23.17a24.23,24.23,0,0,1,17.14,7,.8.8,0,0,1,.22,1,.75.75,0,0,1-.93.34.83.83,0,0,1-.36-.25A22.19,22.19,0,0,0,410.83,25a22.57,22.57,0,0,0-19.5,6l-.33.31a.78.78,0,1,1-1.08-1.13h0a20.93,20.93,0,0,1,2.15-1.9,24.27,24.27,0,0,1,14.6-5.13h.5Z"/><path class="cls-1" d="M407.13,29.36a18.19,18.19,0,0,1,12.52,5h0a1.85,1.85,0,0,1,.47.6.66.66,0,0,1-.16.92.8.8,0,0,1-1.07-.06,16.11,16.11,0,0,0-4-2.94,16.66,16.66,0,0,0-19.37,2.75c-.45.44-.91.49-1.26.13s-.3-.83.18-1.28a18.18,18.18,0,0,1,12.69-5.12Z"/><path class="cls-1" d="M407.1,35.59a12,12,0,0,1,8.3,3.33.9.9,0,0,1,.34,1c-.21.58-.88.64-1.39.14A9.78,9.78,0,0,0,410,37.58a10.27,10.27,0,0,0-10.15,2.51.83.83,0,0,1-1.05.19.74.74,0,0,1-.34-.89.9.9,0,0,1,.3-.44,12,12,0,0,1,8.33-3.36Z"/><path class="cls-1" d="M46.69,191.2v33.73h-.43a2.46,2.46,0,0,1-2.45-2.45L44.67,211a.43.43,0,0,0-.12-.32.46.46,0,0,0-.32-.14,2.45,2.45,0,0,1-2.45-2.45V196.51a5.32,5.32,0,0,1,4.91-5.31Zm.43-.89a6.19,6.19,0,0,0-6.2,6.2v11.54a3.33,3.33,0,0,0,2.86,3.29l-.84,11.11v0a3.2,3.2,0,0,0,1,2.34,3.3,3.3,0,0,0,2.34,1h.87a.44.44,0,0,0,.43-.43V190.74a.44.44,0,0,0-.43-.43Zm-13.33,0a.44.44,0,0,0-.43.43v8.66a.43.43,0,0,0,.87,0v-8.66A.44.44,0,0,0,33.79,190.31Zm-2.31,0a.44.44,0,0,0-.43.43v8.66a.43.43,0,0,0,.87,0v-8.66A.44.44,0,0,0,31.49,190.31Zm-2,0a.47.47,0,0,0-.46.4l-.58,11.57c0,2,1,3.23,2.57,3.32l-.78,17.6A2.46,2.46,0,0,0,31,225a2.56,2.56,0,0,0,1.82.78,2.56,2.56,0,0,0,2.54-2.63l-.78-17.6c1.59-.09,2.57-1.33,2.57-3.32l-.58-11.54a.43.43,0,0,0-.46-.4.41.41,0,0,0-.4.46l.58,11.51c0,.75-.17,2.45-1.88,2.45a.26.26,0,0,0-.14,0,.37.37,0,0,0-.17,0,.41.41,0,0,0-.4.46l.81,18a1.68,1.68,0,0,1-.46,1.21,1.73,1.73,0,0,1-1.21.52,1.62,1.62,0,0,1-1.21-.52,1.57,1.57,0,0,1-.46-1.21l.81-18a.47.47,0,0,0-.4-.46.37.37,0,0,0-.17,0,1.25,1.25,0,0,0-.14,0c-1.7,0-1.88-1.7-1.88-2.42l.58-11.54a.44.44,0,0,0-.4-.49Z"/><path class="cls-1" d="M218.48,132.29h-1.24a.89.89,0,0,1-.89-.89V104.91a5.29,5.29,0,0,0-5.29-5.29H179.24a5.29,5.29,0,0,0-5.29,5.29V131.4a.89.89,0,0,1-.89.89h-1.24a.89.89,0,0,1-.89-.89V104.91a8.29,8.29,0,0,1,8.3-8.3h31.83a8.29,8.29,0,0,1,8.3,8.3V131.4a.89.89,0,0,1-.89.89Zm-13.84-9.84a2.16,2.16,0,0,1-2.17-2.17,2.19,2.19,0,0,1,2.17-2.17,2.16,2.16,0,0,1,2.17,2.17A2.19,2.19,0,0,1,204.64,122.45Zm-19,0a2.16,2.16,0,0,1-2.17-2.17,2.17,2.17,0,0,1,4.35,0A2.16,2.16,0,0,1,185.67,122.45Zm-.54-7.91a18.53,18.53,0,0,1,2.13-5.24.38.38,0,0,1,.2-.2,1.11,1.11,0,0,1,.25-.15c.59-.25,2.47-.84,7.46-.84s6.82.59,7.46.84c.1.05.2.05.25.15l.2.2a18.56,18.56,0,0,1,2.13,5.24,1,1,0,0,1,.05.35q-5-.45-10.08-.44t-10.08.44a.67.67,0,0,0,0-.35Zm25.6-1.19a.91.91,0,0,0-.94-.94h-.59c-1.14,0-1.93,1.29-1.93,1.29a4.46,4.46,0,0,1-.35.54c-.15-.49-.25-.89-.35-1.29a15.81,15.81,0,0,0-2.27-4.79,3.94,3.94,0,0,0-2.92-1.58,37.94,37.94,0,0,0-6.28-.4,33.45,33.45,0,0,0-6.28.4,4.31,4.31,0,0,0-2.92,1.58,15.81,15.81,0,0,0-2.27,4.79c-.1.4-.2.79-.35,1.29-.15-.25-.25-.4-.35-.54s-.79-1.29-1.93-1.29h-.59a.94.94,0,0,0-.94.94v1.19a.93.93,0,0,0,1,1h2.42c0,.05.05.05.05.1s-.15.05-.2.15a6.77,6.77,0,0,0-2.22,5.19c0,1.24.15,2.47.25,3.71a8.52,8.52,0,0,0,.74,2.72,1.26,1.26,0,0,0,.84.74c.2.05.25.15.2.35V130a1,1,0,0,0,1.14,1.14h1.83a1,1,0,0,0,1.19-1.19v-1.24c2.77.2,5.53.3,8.35.3s5.53-.1,8.35-.3V130a1,1,0,0,0,1.19,1.19h1.83a1.06,1.06,0,0,0,1.14-1.14v-1.53c0-.15,0-.3.2-.35a1.15,1.15,0,0,0,.84-.74,7.71,7.71,0,0,0,.74-2.72,31,31,0,0,0,.25-3.71,6.8,6.8,0,0,0-2.22-5.19c-.05-.05-.15-.1-.2-.15s.05-.05.05-.1h2.42a.93.93,0,0,0,1-1,4.92,4.92,0,0,0,.1-1.19Z"/><path class="cls-2" d="M416.09,118.54c2.15,0,6.63,0,6.63-3.65a14.7,14.7,0,0,0-1.46-4.31,5.65,5.65,0,0,0-3-10,3.69,3.69,0,0,0-5.16-2.42,4.34,4.34,0,0,0-5.82.86,6.6,6.6,0,0,0-.73,0,8.16,8.16,0,0,0-6.21,2.41,5.28,5.28,0,0,0-1.09,4.41c0,.08,0,.15,0,.23l-.37,0a3.05,3.05,0,0,0-1.23.26,3.54,3.54,0,0,0-5,1.31,7.25,7.25,0,0,0-.92-.06,3.87,3.87,0,0,0-3.13,1.24,4.14,4.14,0,0,0-.57,3.58c0,.15.06.29.08.44a6.66,6.66,0,0,0,.26,1.11,4,4,0,0,0,.36,4.68,3.68,3.68,0,0,0,3,3,3.22,3.22,0,0,0,1.55.06,3.52,3.52,0,0,0,2.09,1.49V130h-6.05v1.51h8.4l3.71-1.51,3.78,1.51h9.07l3-1.51,3.07,1.51h2.27V130h-2.27l-3.07-1.51-3,1.51H412l.21-11.89a9.19,9.19,0,0,0,1.14-.22,5.6,5.6,0,0,0,2.71.7Zm-14.57-16.16a6.66,6.66,0,0,1,5.06-1.88,5.44,5.44,0,0,1,.94.09l.49.09.27-.42a2.84,2.84,0,0,1,4.28-.6l.44.38.48-.33a2.17,2.17,0,0,1,3.39,1.66l.07.71h.71a4.14,4.14,0,0,1,2.22,7.64l-.62.4.38.63a16.12,16.12,0,0,1,1.57,4.15c0,1.56-1.38,2.14-5.11,2.14a4.12,4.12,0,0,1-2.2-.64l-.29-.18-.33.1a7.91,7.91,0,0,1-4.18.1l-.36-.09-.29.23a4.1,4.1,0,0,1-2.55.88,4.15,4.15,0,0,1-3.21-6.77l.42-.52-.46-.48a8.12,8.12,0,0,1-1.88-4.08,3.77,3.77,0,0,1,.75-3.19Zm-7.21,18-.32-.63-.65.27a1.7,1.7,0,0,1-1.23.06l-.08,0a2.17,2.17,0,0,1-1.79-1.94l0-.26-.18-.19a2.52,2.52,0,0,1-.17-3.3l.29-.38-.23-.43a3.85,3.85,0,0,1-.3-1.09c0-.16-.06-.32-.09-.48a2.76,2.76,0,0,1,.26-2.32,2.54,2.54,0,0,1,2-.69,6.09,6.09,0,0,1,1.22.13l.67.14.21-.65a2,2,0,0,1,3.3-.92l.44.38.48-.33a1.53,1.53,0,0,1,.86-.27,1.51,1.51,0,0,1,.87.28,9.41,9.41,0,0,0,1.32,2.41,5.64,5.64,0,0,0,1.39,7.6,5.51,5.51,0,0,1-3.5,1.76l-.49.05-.15.47a2.2,2.2,0,0,1-4.08.33Zm7.13,8L396.9,130v-6.81a4,4,0,0,0,2.75-2.13,7,7,0,0,0,4.24-2.45,5.6,5.6,0,0,0,5.19-.61c.56.11.85.4,1.44-.1V130h-5.29Z"/><path class="cls-1" d="M212.08,43.93h-6.16V31.13a3,3,0,0,1,3-3h.13a3,3,0,0,1,3,3Zm-30.23-9h21.69v9H181.85Zm-8.54-3.76a3,3,0,0,1,3-3h.13a3,3,0,0,1,3,3v12.8h-6.16ZM184,16.55h17a5.2,5.2,0,0,1,5.28,5.09v4.77a5.4,5.4,0,0,0-2.77,4.71V32.5H181.85V31.13a5.4,5.4,0,0,0-3.13-4.89V21.65a5.2,5.2,0,0,1,5.29-5.1Zm25.05,9.17h-.38V21.65A7.59,7.59,0,0,0,201,14.17H184a7.59,7.59,0,0,0-7.68,7.48v4.07a5.41,5.41,0,0,0-5.4,5.4v14a1.19,1.19,0,0,0,1.19,1.19h41.16a1.19,1.19,0,0,0,1.19-1.19v-14a5.4,5.4,0,0,0-5.41-5.4Z"/><path class="cls-1" d="M87.7,19.1a5,5,0,0,0-3.92,1.59,6.3,6.3,0,0,0-1.43,4.37,6.54,6.54,0,0,0,1.35,4.4A4.82,4.82,0,0,0,87.55,31a10.44,10.44,0,0,0,3.06-.43v.82a10,10,0,0,1-3.28.46,5.58,5.58,0,0,1-4.39-1.8,7.32,7.32,0,0,1-1.6-5,7.89,7.89,0,0,1,.77-3.56,5.54,5.54,0,0,1,2.2-2.38,6.5,6.5,0,0,1,3.34-.84,8,8,0,0,1,3.47.72l-.37.83A6.72,6.72,0,0,0,87.7,19.1Z"/><path class="cls-1" d="M99.32,31.7l-.23-1.56H99a4.67,4.67,0,0,1-1.53,1.35,4.08,4.08,0,0,1-1.85.39,3.21,3.21,0,0,1-2.26-.74,2.66,2.66,0,0,1-.81-2.06,2.54,2.54,0,0,1,1.2-2.24A6.52,6.52,0,0,1,97.26,26l1.88-.05V25.3a3.35,3.35,0,0,0-.57-2.12,2.21,2.21,0,0,0-1.84-.72,6.16,6.16,0,0,0-2.84.76l-.33-.78a7.51,7.51,0,0,1,3.21-.76,3.2,3.2,0,0,1,2.42.84,3.7,3.7,0,0,1,.8,2.63V31.7Zm-3.62-.63a3.14,3.14,0,0,0,3.4-3.41v-1l-1.72.07a6.49,6.49,0,0,0-3,.65,1.87,1.87,0,0,0-.88,1.71,1.84,1.84,0,0,0,.57,1.44A2.3,2.3,0,0,0,95.7,31.07Z"/><path class="cls-1" d="M107.33,21.66a3.76,3.76,0,0,1,3.11,1.3,6,6,0,0,1,1,3.8,5.79,5.79,0,0,1-1.1,3.79,3.79,3.79,0,0,1-3.09,1.33,4.07,4.07,0,0,1-1.89-.44,3.31,3.31,0,0,1-1.33-1.23H104l-.25,1.49h-.56V17.6h.9v3.54q0,.8,0,1.47l0,.77h.06a3.61,3.61,0,0,1,1.35-1.3A4.06,4.06,0,0,1,107.33,21.66Zm0,.82a2.93,2.93,0,0,0-2.49,1,5.56,5.56,0,0,0-.75,3.29v.15a5.12,5.12,0,0,0,.78,3.2,3,3,0,0,0,2.44,1A2.8,2.8,0,0,0,109.72,30a5.42,5.42,0,0,0,.82-3.21Q110.54,22.48,107.31,22.48Z"/><path class="cls-1" d="M115.12,31.7h-.9V17.6h.9Z"/><path class="cls-1" d="M122.39,31.88A4.29,4.29,0,0,1,119,30.56a5.32,5.32,0,0,1-1.2-3.71A5.78,5.78,0,0,1,119,23.08a3.83,3.83,0,0,1,3.13-1.42,3.37,3.37,0,0,1,2.75,1.21,5,5,0,0,1,1,3.3v.72h-7.09a4.66,4.66,0,0,0,.95,3.1,3.33,3.33,0,0,0,2.66,1.07,8.29,8.29,0,0,0,1.48-.12,9,9,0,0,0,1.62-.51v.82a7.21,7.21,0,0,1-1.54.49A8.53,8.53,0,0,1,122.39,31.88Zm-.26-9.42a3,3,0,0,0-2.28.94,4.42,4.42,0,0,0-1,2.71h6.09a4.3,4.3,0,0,0-.74-2.68A2.45,2.45,0,0,0,122.13,22.46Z"/><path class="cls-1" d="M136,31.09a6.73,6.73,0,0,0,1.49-.14v.72a4.77,4.77,0,0,1-1.5.22,2.45,2.45,0,0,1-1.93-.7,3.24,3.24,0,0,1-.62-2.19V22.63H132v-.53l1.46-.41.45-2.23h.46v2.38h2.89v.78h-2.89v6.23a2.84,2.84,0,0,0,.4,1.68A1.45,1.45,0,0,0,136,31.09Z"/><path class="cls-1" d="M141.79,31.7,138,21.85h.92l2.55,6.7a20.68,20.68,0,0,1,.76,2.25h.05q.37-1.23.76-2.27l2.55-6.68h.92L142.7,31.7Z"/><path class="cls-1" d="M92.6,120.7h-.76l-2.91-10.22q-.36-1.26-.54-2.07-.15.79-.41,1.81T85.05,120.7h-.78l-3.64-13.25h1L83.92,116l.25,1c.08.29.15.57.21.82s.12.5.17.74.1.48.14.72q.22-1.23.92-3.74l2.26-8h1l2.66,9.22q.46,1.6.66,2.57.12-.65.3-1.39t2.79-10.41h.93Z"/><path class="cls-1" d="M104.35,120.7l-.23-1.56h-.07a4.67,4.67,0,0,1-1.53,1.35,4.08,4.08,0,0,1-1.85.39,3.21,3.21,0,0,1-2.26-.74,2.66,2.66,0,0,1-.81-2.06,2.54,2.54,0,0,1,1.2-2.24,6.52,6.52,0,0,1,3.47-.84l1.88-.05v-.65a3.35,3.35,0,0,0-.57-2.12,2.21,2.21,0,0,0-1.84-.72,6.16,6.16,0,0,0-2.84.76l-.33-.78a7.51,7.51,0,0,1,3.21-.76,3.2,3.2,0,0,1,2.42.84,3.7,3.7,0,0,1,.8,2.63v6.55Zm-3.62-.63a3.14,3.14,0,0,0,3.4-3.41v-1l-1.72.07a6.49,6.49,0,0,0-3,.65,1.87,1.87,0,0,0-.88,1.71,1.84,1.84,0,0,0,.57,1.44A2.3,2.3,0,0,0,100.73,120.07Z"/><path class="cls-1" d="M114.31,118.14a2.34,2.34,0,0,1-1,2,4.89,4.89,0,0,1-2.85.71,6.81,6.81,0,0,1-3.14-.61v-1a6.93,6.93,0,0,0,3.14.74,4.13,4.13,0,0,0,2.21-.48,1.47,1.47,0,0,0,.76-1.29,1.57,1.57,0,0,0-.6-1.25,6.63,6.63,0,0,0-2-1,11.31,11.31,0,0,1-2.08-.92,2.85,2.85,0,0,1-.9-.87,2.18,2.18,0,0,1-.3-1.18,2,2,0,0,1,.93-1.75,4.51,4.51,0,0,1,2.6-.64,7.76,7.76,0,0,1,3,.6l-.33.82a7.09,7.09,0,0,0-2.69-.6,3.88,3.88,0,0,0-1.91.4,1.22,1.22,0,0,0-.71,1.11,1.53,1.53,0,0,0,.55,1.23,7.61,7.61,0,0,0,2.14,1,10.6,10.6,0,0,1,1.94.87,2.83,2.83,0,0,1,.91.88A2.14,2.14,0,0,1,114.31,118.14Z"/><path class="cls-1" d="M123.71,120.7v-6.39a3.11,3.11,0,0,0-.62-2.16,2.52,2.52,0,0,0-1.94-.68,3.36,3.36,0,0,0-2.59.89,4.21,4.21,0,0,0-.82,2.9v5.44h-.9V106.6h.9v4.49l0,1.26h.06a3.3,3.3,0,0,1,1.4-1.29,4.87,4.87,0,0,1,2.09-.4q3.35,0,3.35,3.6v6.44Z"/><path class="cls-1" d="M131.77,120.88a4.29,4.29,0,0,1-3.35-1.32,5.32,5.32,0,0,1-1.2-3.71,5.78,5.78,0,0,1,1.16-3.77,3.83,3.83,0,0,1,3.13-1.42,3.37,3.37,0,0,1,2.75,1.21,5,5,0,0,1,1,3.3v.72h-7.09a4.66,4.66,0,0,0,.95,3.1,3.33,3.33,0,0,0,2.66,1.07,8.29,8.29,0,0,0,1.48-.12,9,9,0,0,0,1.62-.51v.82a7.21,7.21,0,0,1-1.54.49A8.53,8.53,0,0,1,131.77,120.88Zm-.26-9.42a3,3,0,0,0-2.28.94,4.42,4.42,0,0,0-1,2.71h6.09a4.3,4.3,0,0,0-.74-2.68A2.45,2.45,0,0,0,131.51,111.46Z"/><path class="cls-1" d="M141.86,110.66a7.76,7.76,0,0,1,1.34.13l-.17.86a5.26,5.26,0,0,0-1.28-.15,2.48,2.48,0,0,0-2.07,1.07,4.35,4.35,0,0,0-.81,2.7v5.44H138v-9.85h.76l.09,1.78h.06a4.17,4.17,0,0,1,1.3-1.53A3,3,0,0,1,141.86,110.66Z"/><path class="cls-1" d="M232.61,31.7V18.46h.92V30.83h6.32v.87Z"/><path class="cls-1" d="M241.78,19.12q0-.87.57-.87a.51.51,0,0,1,.44.23,1.11,1.11,0,0,1,.16.64,1.13,1.13,0,0,1-.16.64.5.5,0,0,1-.44.24Q241.78,20,241.78,19.12Zm1,12.59h-.9V21.85h.9Z"/><path class="cls-1" d="M248.26,31.7l-3.81-9.85h.92l2.55,6.7a20.68,20.68,0,0,1,.76,2.25h.05q.37-1.23.76-2.27L252,21.85H253l-3.81,9.85Z"/><path class="cls-1" d="M254.5,19.12q0-.87.57-.87a.51.51,0,0,1,.44.23,1.11,1.11,0,0,1,.16.64,1.13,1.13,0,0,1-.16.64.5.5,0,0,1-.44.24Q254.5,20,254.5,19.12Zm1,12.59h-.9V21.85h.9Z"/><path class="cls-1" d="M265.69,31.7V25.32a3.11,3.11,0,0,0-.62-2.16,2.52,2.52,0,0,0-1.94-.68,3.36,3.36,0,0,0-2.59.89,4.21,4.21,0,0,0-.82,2.9V31.7h-.9V21.85h.76l.17,1.35h.05a3.7,3.7,0,0,1,3.42-1.54q3.35,0,3.35,3.6V31.7Z"/><path class="cls-1" d="M277.45,21.85v.63l-2,.13a3.48,3.48,0,0,1,.81,2.23,3,3,0,0,1-.95,2.31,3.58,3.58,0,0,1-2.54.88,5.52,5.52,0,0,1-.94-.05,2.34,2.34,0,0,0-.82.66,1.33,1.33,0,0,0-.28.81.75.75,0,0,0,.36.69,2.44,2.44,0,0,0,1.2.22H274a4,4,0,0,1,2.46.65,2.26,2.26,0,0,1,.85,1.92A2.73,2.73,0,0,1,276,35.32a6.45,6.45,0,0,1-3.6.85,5,5,0,0,1-2.88-.72,2.3,2.3,0,0,1-1-2,2.36,2.36,0,0,1,.63-1.69,3.26,3.26,0,0,1,1.71-.92,1.73,1.73,0,0,1-.71-.54,1.29,1.29,0,0,1-.27-.8,2.11,2.11,0,0,1,1.26-1.74,2.81,2.81,0,0,1-1.34-1.11,3.16,3.16,0,0,1-.48-1.73,3.12,3.12,0,0,1,.94-2.37,3.53,3.53,0,0,1,2.53-.89,4.66,4.66,0,0,1,1.5.19Zm-8,11.52q0,2,3,2,3.88,0,3.88-2.47a1.43,1.43,0,0,0-.61-1.29,3.7,3.7,0,0,0-2-.4h-1.61Q269.47,31.24,269.47,33.37Zm.75-8.44a2.28,2.28,0,0,0,.69,1.77,3.11,3.11,0,0,0,3.74,0,2.39,2.39,0,0,0,.66-1.81,2.47,2.47,0,0,0-.68-1.89,2.66,2.66,0,0,0-1.89-.63,2.5,2.5,0,0,0-1.85.67A2.54,2.54,0,0,0,270.22,24.93Z"/><path class="cls-1" d="M285.44,25.93V31.7h-.92V18.46h3.15a5.94,5.94,0,0,1,3.64.91,3.25,3.25,0,0,1,1.18,2.74,3.59,3.59,0,0,1-.7,2.25,3.9,3.9,0,0,1-2.13,1.31l3.6,6h-1.11l-3.42-5.77Zm0-.8H288a4,4,0,0,0,2.6-.75,2.67,2.67,0,0,0,.92-2.21,2.59,2.59,0,0,0-.91-2.2,5,5,0,0,0-3-.69h-2.19Z"/><path class="cls-1" d="M303.46,26.77a5.58,5.58,0,0,1-1.17,3.76,4,4,0,0,1-3.23,1.36,4.18,4.18,0,0,1-2.28-.63,4,4,0,0,1-1.51-1.79,6.54,6.54,0,0,1-.53-2.7A5.54,5.54,0,0,1,295.91,23a4,4,0,0,1,3.21-1.35A4,4,0,0,1,302.31,23,5.6,5.6,0,0,1,303.46,26.77Zm-7.77,0a5,5,0,0,0,.89,3.17,3.37,3.37,0,0,0,5,0,5,5,0,0,0,.89-3.17,4.93,4.93,0,0,0-.9-3.16,3.06,3.06,0,0,0-2.53-1.12,3,3,0,0,0-2.52,1.12A5,5,0,0,0,295.69,26.77Z"/><path class="cls-1" d="M314.34,26.77a5.58,5.58,0,0,1-1.17,3.76,4,4,0,0,1-3.22,1.36,4.17,4.17,0,0,1-2.28-.63,4,4,0,0,1-1.51-1.79,6.51,6.51,0,0,1-.53-2.7A5.54,5.54,0,0,1,306.79,23,4,4,0,0,1,310,21.66,4,4,0,0,1,313.18,23,5.59,5.59,0,0,1,314.34,26.77Zm-7.78,0a5,5,0,0,0,.89,3.17,3.37,3.37,0,0,0,5,0,5,5,0,0,0,.89-3.17,4.94,4.94,0,0,0-.9-3.16A3.06,3.06,0,0,0,310,22.48a3,3,0,0,0-2.51,1.12A5,5,0,0,0,306.56,26.77Z"/><path class="cls-1" d="M329.37,31.7V25.24a3.22,3.22,0,0,0-.56-2.1,2.14,2.14,0,0,0-1.72-.66,2.81,2.81,0,0,0-2.24.83,3.93,3.93,0,0,0-.72,2.62V31.7h-.91V25q0-2.49-2.29-2.49a2.69,2.69,0,0,0-2.26.9,4.7,4.7,0,0,0-.71,2.89V31.7h-.9V21.85h.74l.19,1.35h.05a2.82,2.82,0,0,1,1.16-1.14,3.45,3.45,0,0,1,1.66-.4,2.83,2.83,0,0,1,3,1.75h0a3.35,3.35,0,0,1,1.29-1.3,3.72,3.72,0,0,1,1.84-.45,3.16,3.16,0,0,1,2.42.86,3.91,3.91,0,0,1,.81,2.74V31.7Z"/><path class="cls-1" d="M454.27,31.7h-.76L450.6,21.48q-.36-1.26-.54-2.07c-.1.53-.23,1.13-.41,1.81s-1.15,4.17-2.92,10.47h-.78L442.3,18.46h1L445.59,27l.25,1,.21.82c.06.26.12.5.17.74s.1.48.14.72q.22-1.23.92-3.74l2.27-8h1l2.66,9.22q.46,1.6.66,2.57.12-.65.3-1.39T457,18.46h.93Z"/><path class="cls-1" d="M459.91,19.12q0-.87.57-.87a.51.51,0,0,1,.44.23,1.11,1.11,0,0,1,.16.64,1.14,1.14,0,0,1-.16.64.5.5,0,0,1-.44.24Q459.91,20,459.91,19.12Zm1,12.59H460V21.85h.9Z"/><path class="cls-1" d="M467.9,22.63h-2.32V31.7h-.9V22.63h-1.83v-.53l1.83-.33V21a4.3,4.3,0,0,1,.67-2.66,2.61,2.61,0,0,1,2.18-.85,5.66,5.66,0,0,1,1.63.25l-.21.78a4.79,4.79,0,0,0-1.44-.23,1.7,1.7,0,0,0-1.49.62,3.57,3.57,0,0,0-.44,2v.92h2.32Zm1.78-3.52c0-.58.19-.87.57-.87a.51.51,0,0,1,.44.23,1.1,1.1,0,0,1,.16.64,1.13,1.13,0,0,1-.16.64.5.5,0,0,1-.44.24C469.86,20,469.67,19.7,469.67,19.12Zm1,12.59h-.9V21.85h.9Z"/><path class="cls-1" d="M451.69,107.46a3.52,3.52,0,0,1-1.3,2.94,5.86,5.86,0,0,1-3.7,1h-2v5.47h-.92V103.65H447Q451.69,103.65,451.69,107.46Zm-7,3.17h1.82a5.53,5.53,0,0,0,3.24-.74,2.79,2.79,0,0,0,1-2.4,2.71,2.71,0,0,0-.94-2.27,4.71,4.71,0,0,0-2.92-.74h-2.19Z"/><path class="cls-1" d="M460.32,116.9l-.23-1.56H460a4.67,4.67,0,0,1-1.53,1.35,4.08,4.08,0,0,1-1.85.39,3.2,3.2,0,0,1-2.26-.74,2.65,2.65,0,0,1-.81-2.06,2.54,2.54,0,0,1,1.2-2.24,6.51,6.51,0,0,1,3.47-.84l1.88-.05v-.65a3.35,3.35,0,0,0-.57-2.12,2.21,2.21,0,0,0-1.84-.72,6.16,6.16,0,0,0-2.84.76l-.34-.78a7.52,7.52,0,0,1,3.21-.76,3.2,3.2,0,0,1,2.42.84,3.71,3.71,0,0,1,.8,2.63v6.55Zm-3.62-.63a3.14,3.14,0,0,0,3.4-3.41v-1l-1.72.07a6.5,6.5,0,0,0-3,.65,1.87,1.87,0,0,0-.88,1.71,1.84,1.84,0,0,0,.57,1.44A2.3,2.3,0,0,0,456.7,116.27Z"/><path class="cls-1" d="M468.05,106.86a7.75,7.75,0,0,1,1.34.13l-.17.86a5.25,5.25,0,0,0-1.28-.15,2.48,2.48,0,0,0-2.07,1.07,4.36,4.36,0,0,0-.81,2.7v5.44h-.9v-9.85h.76l.09,1.78h.06a4.17,4.17,0,0,1,1.29-1.53A3,3,0,0,1,468.05,106.86Z"/><path class="cls-1" d="M472.27,112.58l5-5.53h1.09l-3.88,4.2,4.21,5.65h-1.08l-3.74-5-1.61,1.47v3.51h-.9V102.8h.9v7.07l-.06,2.71Z"/><path class="cls-1" d="M486.48,114.34a2.34,2.34,0,0,1-1,2,4.89,4.89,0,0,1-2.85.71,6.82,6.82,0,0,1-3.14-.61v-1a6.93,6.93,0,0,0,3.14.74,4.13,4.13,0,0,0,2.21-.48,1.47,1.47,0,0,0,.76-1.29,1.58,1.58,0,0,0-.6-1.25,6.65,6.65,0,0,0-2-1,11.32,11.32,0,0,1-2.07-.92,2.87,2.87,0,0,1-.9-.87,2.18,2.18,0,0,1-.3-1.18,2,2,0,0,1,.93-1.75,4.51,4.51,0,0,1,2.6-.64,7.76,7.76,0,0,1,3,.6l-.34.82a7.09,7.09,0,0,0-2.69-.6,3.88,3.88,0,0,0-1.91.4,1.22,1.22,0,0,0-.71,1.11,1.53,1.53,0,0,0,.55,1.23,7.6,7.6,0,0,0,2.14,1,10.62,10.62,0,0,1,1.94.87,2.82,2.82,0,0,1,.91.88A2.15,2.15,0,0,1,486.48,114.34Z"/><path class="cls-1" d="M240.59,107.46a3.52,3.52,0,0,1-1.3,2.94,5.87,5.87,0,0,1-3.7,1h-2v5.47h-.92V103.65h3.24Q240.59,103.65,240.59,107.46Zm-7,3.17h1.82a5.52,5.52,0,0,0,3.24-.74,2.79,2.79,0,0,0,1-2.4,2.71,2.71,0,0,0-.94-2.27,4.71,4.71,0,0,0-2.92-.74h-2.19Z"/><path class="cls-1" d="M247.12,106.86a7.76,7.76,0,0,1,1.34.13l-.17.86a5.26,5.26,0,0,0-1.28-.15,2.48,2.48,0,0,0-2.07,1.07,4.35,4.35,0,0,0-.81,2.7v5.44h-.9v-9.85H244l.09,1.78h.06a4.17,4.17,0,0,1,1.3-1.53A3,3,0,0,1,247.12,106.86Z"/><path class="cls-1" d="M250.34,104.32q0-.87.57-.87a.51.51,0,0,1,.44.23,1.11,1.11,0,0,1,.16.64,1.13,1.13,0,0,1-.16.64.5.5,0,0,1-.44.24Q250.34,105.19,250.34,104.32Zm1,12.59h-.9v-9.85h.9Z"/><path class="cls-1" d="M256.81,116.9,253,107.05h.92l2.55,6.7a20.68,20.68,0,0,1,.76,2.25h.05q.37-1.23.76-2.27l2.55-6.68h.92l-3.81,9.85Z"/><path class="cls-1" d="M269.16,116.9l-.23-1.56h-.07a4.67,4.67,0,0,1-1.53,1.35,4.08,4.08,0,0,1-1.85.39,3.21,3.21,0,0,1-2.26-.74,2.66,2.66,0,0,1-.81-2.06,2.54,2.54,0,0,1,1.2-2.24,6.52,6.52,0,0,1,3.47-.84l1.88-.05v-.65a3.35,3.35,0,0,0-.57-2.12,2.21,2.21,0,0,0-1.84-.72,6.17,6.17,0,0,0-2.84.76l-.33-.78a7.51,7.51,0,0,1,3.21-.76,3.19,3.19,0,0,1,2.42.84,3.7,3.7,0,0,1,.8,2.63v6.55Zm-3.62-.63a3.14,3.14,0,0,0,3.4-3.41v-1l-1.72.07a6.49,6.49,0,0,0-3,.65,1.86,1.86,0,0,0-.88,1.71,1.84,1.84,0,0,0,.56,1.44A2.3,2.3,0,0,0,265.53,116.27Z"/><path class="cls-1" d="M275.61,116.29a6.73,6.73,0,0,0,1.49-.14v.72a4.77,4.77,0,0,1-1.5.22,2.45,2.45,0,0,1-1.93-.7,3.24,3.24,0,0,1-.62-2.19v-6.36h-1.46v-.53l1.46-.41.45-2.23H274v2.38h2.89v.78H274v6.23a2.84,2.84,0,0,0,.4,1.68A1.45,1.45,0,0,0,275.61,116.29Z"/><path class="cls-1" d="M283.2,117.08a4.29,4.29,0,0,1-3.35-1.32,5.32,5.32,0,0,1-1.2-3.71,5.78,5.78,0,0,1,1.16-3.77,3.83,3.83,0,0,1,3.13-1.42,3.38,3.38,0,0,1,2.75,1.21,5,5,0,0,1,1,3.3v.72h-7.1a4.66,4.66,0,0,0,.95,3.1,3.33,3.33,0,0,0,2.66,1.07,8.29,8.29,0,0,0,1.48-.12,9,9,0,0,0,1.62-.51v.82a7.18,7.18,0,0,1-1.54.49A8.54,8.54,0,0,1,283.2,117.08Zm-.26-9.42a3,3,0,0,0-2.28.94,4.43,4.43,0,0,0-1,2.71h6.09a4.29,4.29,0,0,0-.74-2.68A2.45,2.45,0,0,0,282.94,107.66Z"/><path class="cls-1" d="M302.43,107.46a3.52,3.52,0,0,1-1.3,2.94,5.87,5.87,0,0,1-3.7,1h-2v5.47h-.92V103.65h3.24Q302.43,103.65,302.43,107.46Zm-7.05,3.17h1.82a5.52,5.52,0,0,0,3.23-.74,2.79,2.79,0,0,0,1-2.4,2.7,2.7,0,0,0-.94-2.27,4.72,4.72,0,0,0-2.92-.74h-2.19Z"/><path class="cls-1" d="M311.06,116.9l-.23-1.56h-.07a4.67,4.67,0,0,1-1.53,1.35,4.08,4.08,0,0,1-1.85.39,3.21,3.21,0,0,1-2.26-.74,2.66,2.66,0,0,1-.81-2.06,2.54,2.54,0,0,1,1.2-2.24,6.52,6.52,0,0,1,3.47-.84l1.88-.05v-.65a3.35,3.35,0,0,0-.57-2.12,2.21,2.21,0,0,0-1.84-.72,6.17,6.17,0,0,0-2.84.76l-.33-.78a7.51,7.51,0,0,1,3.21-.76,3.19,3.19,0,0,1,2.42.84,3.7,3.7,0,0,1,.8,2.63v6.55Zm-3.62-.63a3.14,3.14,0,0,0,3.4-3.41v-1l-1.72.07a6.49,6.49,0,0,0-3,.65,1.86,1.86,0,0,0-.88,1.71,1.84,1.84,0,0,0,.56,1.44A2.3,2.3,0,0,0,307.44,116.27Z"/><path class="cls-1" d="M318.79,106.86a7.78,7.78,0,0,1,1.34.13l-.17.86a5.27,5.27,0,0,0-1.28-.15,2.48,2.48,0,0,0-2.07,1.07,4.35,4.35,0,0,0-.81,2.7v5.44h-.9v-9.85h.76l.09,1.78h.06a4.17,4.17,0,0,1,1.3-1.53A3,3,0,0,1,318.79,106.86Z"/><path class="cls-1" d="M323,112.58l5-5.53h1.09l-3.88,4.2,4.21,5.65h-1.08l-3.74-5L323,113.39v3.51h-.9V102.8h.9v7.07l-.06,2.71Z"/><path class="cls-1" d="M331,104.32q0-.87.57-.87a.51.51,0,0,1,.44.23,1.11,1.11,0,0,1,.16.64,1.14,1.14,0,0,1-.16.64.5.5,0,0,1-.44.24Q331,105.19,331,104.32Zm1,12.59h-.9v-9.85h.9Z"/><path class="cls-1" d="M342.18,116.9v-6.39a3.11,3.11,0,0,0-.62-2.16,2.52,2.52,0,0,0-1.94-.68,3.36,3.36,0,0,0-2.59.89,4.21,4.21,0,0,0-.82,2.9v5.44h-.9v-9.85h.76l.17,1.35h.05a3.7,3.7,0,0,1,3.42-1.54q3.35,0,3.35,3.6v6.44Z"/><path class="cls-1" d="M353.94,107.05v.63l-2,.13a3.47,3.47,0,0,1,.82,2.23,3,3,0,0,1-.95,2.31,3.58,3.58,0,0,1-2.54.88,5.54,5.54,0,0,1-.94-.05,2.35,2.35,0,0,0-.81.66,1.33,1.33,0,0,0-.28.81.75.75,0,0,0,.36.69,2.44,2.44,0,0,0,1.2.22h1.72a4,4,0,0,1,2.46.65,2.26,2.26,0,0,1,.85,1.92,2.73,2.73,0,0,1-1.26,2.41,6.46,6.46,0,0,1-3.6.85,5,5,0,0,1-2.88-.72,2.3,2.3,0,0,1-1-2,2.36,2.36,0,0,1,.63-1.69,3.26,3.26,0,0,1,1.71-.92,1.74,1.74,0,0,1-.71-.54,1.29,1.29,0,0,1-.27-.8,2.11,2.11,0,0,1,1.26-1.74,2.8,2.8,0,0,1-1.34-1.11,3.16,3.16,0,0,1-.48-1.73,3.12,3.12,0,0,1,.94-2.37,3.52,3.52,0,0,1,2.53-.89,4.67,4.67,0,0,1,1.5.19Zm-8,11.52q0,2,3,2,3.88,0,3.88-2.47a1.42,1.42,0,0,0-.61-1.29,3.69,3.69,0,0,0-2-.4h-1.61Q346,116.44,346,118.57Zm.75-8.44a2.27,2.27,0,0,0,.69,1.77,3.11,3.11,0,0,0,3.74,0,2.39,2.39,0,0,0,.66-1.81,2.46,2.46,0,0,0-.68-1.89,2.66,2.66,0,0,0-1.89-.63,2.51,2.51,0,0,0-1.85.67A2.55,2.55,0,0,0,346.72,110.12Z"/><path class="cls-1" d="M237.8,201.47a3.18,3.18,0,0,1-1.22,2.63,5.05,5.05,0,0,1-3.24,1,10.14,10.14,0,0,1-3.72-.54v-.92a9.43,9.43,0,0,0,3.65.61,4.09,4.09,0,0,0,2.59-.75,2.37,2.37,0,0,0,1-2,2.26,2.26,0,0,0-.32-1.25,2.89,2.89,0,0,0-1-.9,12.83,12.83,0,0,0-2.1-.88,7.19,7.19,0,0,1-2.8-1.51,3.23,3.23,0,0,1,.39-4.58,4.63,4.63,0,0,1,3-.94,8.78,8.78,0,0,1,3.51.71l-.34.8a8.18,8.18,0,0,0-3.15-.69,3.69,3.69,0,0,0-2.34.68,2.22,2.22,0,0,0-.87,1.85A2.43,2.43,0,0,0,231,196a2.46,2.46,0,0,0,.88.85,11.89,11.89,0,0,0,2.08.9,11.25,11.25,0,0,1,2.33,1,3.32,3.32,0,0,1,1.14,1.14A3.12,3.12,0,0,1,237.8,201.47Z"/><path class="cls-1" d="M248.24,204.88l-2.16-6.59q-.21-.67-.54-2h-.05l-.19.67-.41,1.31-2.19,6.57h-.89L239,195h1l1.58,5.71q.55,2.12.72,3.12h.05q.53-2.12.78-2.82l2-6h.82l1.93,6q.65,2.13.8,2.82h.05q.07-.59.72-3.15L251,195h.91l-2.67,9.85Z"/><path class="cls-1" d="M253.66,192.3q0-.87.57-.87a.51.51,0,0,1,.44.23,1.11,1.11,0,0,1,.16.64,1.13,1.13,0,0,1-.16.64.5.5,0,0,1-.44.24Q253.66,193.18,253.66,192.3Zm1,12.59h-.9V195h.9Z"/><path class="cls-1" d="M270.29,204.88v-6.46a3.21,3.21,0,0,0-.56-2.1,2.13,2.13,0,0,0-1.72-.66,2.81,2.81,0,0,0-2.24.83,3.92,3.92,0,0,0-.72,2.62v5.77h-.92v-6.73q0-2.49-2.28-2.49a2.69,2.69,0,0,0-2.26.9,4.7,4.7,0,0,0-.71,2.89v5.44H258V195h.74l.19,1.35H259a2.82,2.82,0,0,1,1.16-1.14,3.46,3.46,0,0,1,1.66-.4,2.83,2.83,0,0,1,3,1.75h0a3.35,3.35,0,0,1,1.29-1.3,3.72,3.72,0,0,1,1.84-.45,3.16,3.16,0,0,1,2.42.86,3.91,3.91,0,0,1,.8,2.74v6.44Z"/><path class="cls-1" d="M274.24,192.3c0-.58.19-.87.57-.87a.51.51,0,0,1,.44.23,1.1,1.1,0,0,1,.16.64,1.13,1.13,0,0,1-.16.64.5.5,0,0,1-.44.24C274.43,193.18,274.24,192.88,274.24,192.3Zm1,12.59h-.9V195h.9Z"/><path class="cls-1" d="M285.43,204.88V198.5a3.12,3.12,0,0,0-.62-2.16,2.53,2.53,0,0,0-1.94-.68,3.36,3.36,0,0,0-2.59.89,4.21,4.21,0,0,0-.82,2.9v5.44h-.9V195h.76l.17,1.35h.05a3.7,3.7,0,0,1,3.42-1.54q3.35,0,3.35,3.6v6.44Z"/><path class="cls-1" d="M297.19,195v.63l-2,.13A3.48,3.48,0,0,1,296,198a3,3,0,0,1-.95,2.31,3.58,3.58,0,0,1-2.54.88,5.52,5.52,0,0,1-.94-.05,2.34,2.34,0,0,0-.82.66,1.33,1.33,0,0,0-.28.81.75.75,0,0,0,.36.69,2.44,2.44,0,0,0,1.2.22h1.72a4,4,0,0,1,2.46.65,2.26,2.26,0,0,1,.85,1.92,2.73,2.73,0,0,1-1.26,2.41,6.45,6.45,0,0,1-3.6.85,5,5,0,0,1-2.88-.72,2.3,2.3,0,0,1-1-2,2.36,2.36,0,0,1,.63-1.69,3.26,3.26,0,0,1,1.71-.92,1.73,1.73,0,0,1-.71-.54,1.29,1.29,0,0,1-.27-.8,2.11,2.11,0,0,1,1.26-1.74,2.81,2.81,0,0,1-1.34-1.11,3.16,3.16,0,0,1-.48-1.73,3.12,3.12,0,0,1,.94-2.37,3.53,3.53,0,0,1,2.53-.89,4.66,4.66,0,0,1,1.5.19Zm-8,11.52q0,2,3,2,3.88,0,3.88-2.47a1.43,1.43,0,0,0-.61-1.29,3.7,3.7,0,0,0-2-.4h-1.61Q289.22,204.42,289.22,206.55Zm.75-8.44a2.28,2.28,0,0,0,.69,1.77,3.11,3.11,0,0,0,3.74,0,2.39,2.39,0,0,0,.66-1.81,2.47,2.47,0,0,0-.68-1.89,2.66,2.66,0,0,0-1.89-.63,2.5,2.5,0,0,0-1.85.67A2.54,2.54,0,0,0,290,198.11Z"/><path class="cls-1" d="M312.23,195.44a3.52,3.52,0,0,1-1.3,2.94,5.86,5.86,0,0,1-3.7,1h-2v5.47h-.92V191.64h3.24Q312.23,191.64,312.23,195.44Zm-7,3.17H307a5.53,5.53,0,0,0,3.24-.74,2.79,2.79,0,0,0,1-2.4,2.71,2.71,0,0,0-.94-2.27,4.71,4.71,0,0,0-2.92-.74h-2.19Z"/><path class="cls-1" d="M323,199.94a5.58,5.58,0,0,1-1.17,3.76,4,4,0,0,1-3.23,1.36,4.18,4.18,0,0,1-2.28-.63,4,4,0,0,1-1.51-1.79,6.54,6.54,0,0,1-.53-2.7,5.54,5.54,0,0,1,1.17-3.76,4,4,0,0,1,3.21-1.35,4,4,0,0,1,3.19,1.36A5.6,5.6,0,0,1,323,199.94Zm-7.77,0a5,5,0,0,0,.89,3.17,3.37,3.37,0,0,0,5,0,5,5,0,0,0,.89-3.17,4.93,4.93,0,0,0-.9-3.16,3.06,3.06,0,0,0-2.53-1.12,3,3,0,0,0-2.52,1.12A5,5,0,0,0,315.26,199.94Z"/><path class="cls-1" d="M333.91,199.94a5.58,5.58,0,0,1-1.17,3.76,4,4,0,0,1-3.23,1.36,4.18,4.18,0,0,1-2.28-.63,4,4,0,0,1-1.51-1.79,6.54,6.54,0,0,1-.53-2.7,5.54,5.54,0,0,1,1.17-3.76,4,4,0,0,1,3.21-1.35,4,4,0,0,1,3.19,1.36A5.6,5.6,0,0,1,333.91,199.94Zm-7.77,0a5,5,0,0,0,.89,3.17,3.37,3.37,0,0,0,5,0,5,5,0,0,0,.89-3.17,4.93,4.93,0,0,0-.9-3.16,3.06,3.06,0,0,0-2.53-1.12,3,3,0,0,0-2.52,1.12A5,5,0,0,0,326.13,199.94Z"/><path class="cls-1" d="M337.53,204.88h-.9v-14.1h.9Z"/><path class="cls-1" d="M85.17,211.29H84l-5.08-7-1.77,1.56v5.44h-.92V198h.92v6.89l1.47-1.47L83.84,198H85l-5.43,5.6Z"/><path class="cls-1" d="M86.69,198.7q0-.87.57-.87a.51.51,0,0,1,.44.23,1.11,1.11,0,0,1,.16.64,1.13,1.13,0,0,1-.16.64.5.5,0,0,1-.44.24Q86.69,199.58,86.69,198.7Zm1,12.59h-.9v-9.85h.9Z"/><path class="cls-1" d="M93.61,210.67a6.73,6.73,0,0,0,1.49-.14v.72a4.77,4.77,0,0,1-1.5.22,2.45,2.45,0,0,1-1.93-.7,3.24,3.24,0,0,1-.62-2.19v-6.36H89.59v-.53l1.46-.41.45-2.23H92v2.38h2.89v.78H92v6.23a2.84,2.84,0,0,0,.4,1.68A1.45,1.45,0,0,0,93.61,210.67Z"/><path class="cls-1" d="M101.16,211.47a4.22,4.22,0,0,1-3.31-1.33,5.37,5.37,0,0,1-1.2-3.72,5.46,5.46,0,0,1,1.24-3.81,4.37,4.37,0,0,1,3.4-1.36,6.83,6.83,0,0,1,2.45.44l-.24.8a7.21,7.21,0,0,0-2.22-.43,3.37,3.37,0,0,0-2.75,1.12,4.91,4.91,0,0,0-.93,3.22,4.76,4.76,0,0,0,.93,3.12,3.2,3.2,0,0,0,2.61,1.13,6.41,6.41,0,0,0,2.49-.48V211A5.64,5.64,0,0,1,101.16,211.47Z"/><path class="cls-1" d="M112.91,211.29V204.9a3.11,3.11,0,0,0-.62-2.16,2.52,2.52,0,0,0-1.94-.68,3.36,3.36,0,0,0-2.59.89,4.21,4.21,0,0,0-.82,2.9v5.44H106v-14.1h.9v4.49l0,1.26H107a3.3,3.3,0,0,1,1.4-1.29,4.87,4.87,0,0,1,2.09-.4q3.35,0,3.35,3.6v6.44Z"/><path class="cls-1" d="M121,211.47a4.29,4.29,0,0,1-3.35-1.32,5.32,5.32,0,0,1-1.2-3.71,5.78,5.78,0,0,1,1.16-3.77,3.83,3.83,0,0,1,3.13-1.42,3.37,3.37,0,0,1,2.75,1.21,5,5,0,0,1,1,3.3v.72h-7.09a4.66,4.66,0,0,0,.95,3.1,3.33,3.33,0,0,0,2.66,1.07,8.29,8.29,0,0,0,1.48-.12,9,9,0,0,0,1.62-.51v.82a7.21,7.21,0,0,1-1.54.49A8.53,8.53,0,0,1,121,211.47Zm-.26-9.42a3,3,0,0,0-2.28.94,4.42,4.42,0,0,0-1,2.71h6.09a4.3,4.3,0,0,0-.74-2.68A2.45,2.45,0,0,0,120.71,202Z"/><path class="cls-1" d="M134,211.29V204.9a3.11,3.11,0,0,0-.62-2.16,2.52,2.52,0,0,0-1.94-.68,3.36,3.36,0,0,0-2.59.89,4.21,4.21,0,0,0-.82,2.9v5.44h-.9v-9.85h.76l.17,1.35h.05a3.7,3.7,0,0,1,3.42-1.54q3.35,0,3.35,3.6v6.44Z"/><path class="cls-1" d="M206,183.93a9.15,9.15,0,0,0-9.14,9.14v7.62H178.55v-7.62a6.09,6.09,0,0,1,12.19,0h3a9.14,9.14,0,0,0-18.28,0v18.28h3v-7.62h18.28v7.62h3V193.07a6.09,6.09,0,0,1,12.19,0h3A9.15,9.15,0,0,0,206,183.93Z"/><path class="cls-1" d="M212.07,219h-1.52c-1.39,0-2.44-1-3.36-2a5.78,5.78,0,0,0-1.27-1.08,15,15,0,0,0-1.14,1.08c-.92.92-2,2-3.36,2s-2.44-1-3.36-2a5.78,5.78,0,0,0-1.27-1.08,15,15,0,0,0-1.14,1.08c-.92.92-2,2-3.36,2s-2.44-1-3.36-2a5.78,5.78,0,0,0-1.27-1.08,15,15,0,0,0-1.14,1.08c-.92.92-2,2-3.36,2s-2.44-1-3.36-2a9.5,9.5,0,0,0-1.1-1c-.1.12-.21.28-.3.41A5,5,0,0,1,174,219h-1.52a1.52,1.52,0,1,1,0-3H174c1,0,1.29-.41,1.89-1.27a3.32,3.32,0,0,1,2.68-1.78c1.39,0,2.44,1,3.36,2a5.87,5.87,0,0,0,1.27,1.08,14.71,14.71,0,0,0,1.14-1.08c.92-.92,2-2,3.36-2s2.44,1,3.36,2a5.87,5.87,0,0,0,1.27,1.08,14.71,14.71,0,0,0,1.14-1.08c.92-.92,2-2,3.36-2s2.44,1,3.36,2a5.87,5.87,0,0,0,1.27,1.08,14.71,14.71,0,0,0,1.14-1.08c.92-.92,2-2,3.36-2s2.44,1,3.36,2a5.87,5.87,0,0,0,1.27,1.08h1.46a1.52,1.52,0,0,1,0,3Z"/><path class="cls-1" d="M212.07,225.82h-1.52c-1.39,0-2.44-1-3.36-2a5.78,5.78,0,0,0-1.27-1.08,15,15,0,0,0-1.14,1.08c-.92.92-2,2-3.36,2s-2.44-1-3.36-2a5.78,5.78,0,0,0-1.27-1.08,15,15,0,0,0-1.14,1.08c-.92.92-2,2-3.36,2s-2.44-1-3.36-2a5.78,5.78,0,0,0-1.27-1.08,15,15,0,0,0-1.14,1.08c-.92.92-2,2-3.36,2s-2.44-1-3.36-2a9.5,9.5,0,0,0-1.1-1c-.1.12-.21.28-.3.41a5,5,0,0,1-4.38,2.56h-1.52a1.52,1.52,0,0,1,0-3H174c1,0,1.29-.41,1.89-1.27a3.32,3.32,0,0,1,2.68-1.78c1.39,0,2.44,1,3.36,2a5.87,5.87,0,0,0,1.27,1.08,14.71,14.71,0,0,0,1.14-1.08c.92-.92,2-2,3.36-2s2.44,1,3.36,2a5.87,5.87,0,0,0,1.27,1.08,14.71,14.71,0,0,0,1.14-1.08c.92-.92,2-2,3.36-2s2.44,1,3.36,2a5.87,5.87,0,0,0,1.27,1.08,14.71,14.71,0,0,0,1.14-1.08c.92-.92,2-2,3.36-2s2.44,1,3.36,2a5.87,5.87,0,0,0,1.27,1.08h1.46a1.52,1.52,0,0,1,0,3Z"/></svg>