<svg id="Layer_1" data-name="Layer 1" xmlns="http://www.w3.org/2000/svg" viewBox="0 0 508.48 112.11"><defs><style>.cls-1,.cls-2,.cls-3,.cls-4{fill:#fff;}.cls-2{font-size:14.52px;font-family:OpenSans-Bold, Open Sans;font-weight:700;}.cls-3,.cls-4{stroke:#fff;stroke-miterlimit:10;}.cls-3{stroke-width:0.39px;}.cls-4{stroke-width:0.44px;}</style></defs><title>Artboard 2</title><path class="cls-1" d="M40.85,31.29,37.29,34.1V62.52a1.78,1.78,0,0,0,1.78,1.78H56a1.78,1.78,0,0,0,1.78-1.78v-16H68.44v16a1.78,1.78,0,0,0,1.78,1.78H87.13a1.78,1.78,0,0,0,1.78-1.78V34.1l-3.56-2.81V60.74H72v-16a1.78,1.78,0,0,0-1.78-1.78H56a1.78,1.78,0,0,0-1.78,1.78v16H40.85ZM78.23,10.91h3.56V21.59l-3.56-2.81ZM63,7.35A1.91,1.91,0,0,0,62,7.71L28.17,34.41a1.84,1.84,0,0,0-.31,2.53,1.87,1.87,0,0,0,2.53.28L63.1,11.41,95.8,37.22A1.79,1.79,0,0,0,98,34.41l-12.68-10V9.13a1.78,1.78,0,0,0-1.78-1.78H76.45a1.78,1.78,0,0,0-1.78,1.78V16L64.21,7.71A2,2,0,0,0,63,7.35Z"/><text class="cls-2" transform="translate(21.1 101.62)">Entire Home</text><path class="cls-3" d="M320.53,13.82a8.86,8.86,0,1,1-8.86,8.86A8.91,8.91,0,0,1,320.53,13.82Zm0,20.37A11.53,11.53,0,0,0,332,22.68a11.47,11.47,0,1,0-11.51,11.51Z"/><path class="cls-3" d="M336.7,56.2a3.54,3.54,0,0,1-3,1.63H307.46a3.54,3.54,0,0,1-3-1.63,5.06,5.06,0,0,1-.62-4.59,19.68,19.68,0,0,1,6.53-9.41,16.17,16.17,0,0,1,10.26-3.58,16.8,16.8,0,0,1,10.26,3.58,20.64,20.64,0,0,1,6.53,9.41,5.13,5.13,0,0,1-.77,4.59ZM332.42,40a18.74,18.74,0,0,0-23.64,0,22.78,22.78,0,0,0-7.39,10.65,7.71,7.71,0,0,0,1,7,6.32,6.32,0,0,0,5.05,2.72h26.36a6.21,6.21,0,0,0,5.05-2.72,7.91,7.91,0,0,0,1-7A23,23,0,0,0,332.42,40Z"/><path class="cls-3" d="M296.89,20.82a6.07,6.07,0,1,1-6.07,6.07A6.07,6.07,0,0,1,296.89,20.82Zm0,13.84a7.78,7.78,0,1,0-7.78-7.78A7.75,7.75,0,0,0,296.89,34.66Z"/><path class="cls-3" d="M343.54,18.72a6.22,6.22,0,1,1-6.22,6.22A6.24,6.24,0,0,1,343.54,18.72Zm0,14.23a8,8,0,1,0-8-8.09A8,8,0,0,0,343.54,33Z"/><path class="cls-3" d="M356.92,44.53a16.69,16.69,0,0,0-5.21-7.47,13.93,13.93,0,0,0-8.32-3,13.44,13.44,0,0,0-8.32,3,15,15,0,0,0-1.94,1.86,8.09,8.09,0,0,0,.86.54c.23.15.39.31.62.47a10.2,10.2,0,0,1,1.63-1.56,11.25,11.25,0,0,1,14.31,0A14.33,14.33,0,0,1,355.13,45a3.68,3.68,0,0,1-.39,3.27,2.47,2.47,0,0,1-2.1,1.17H341.05a5.28,5.28,0,0,0,.23.62,6.37,6.37,0,0,1,.31,1.17h11a4.69,4.69,0,0,0,3.58-1.86,5.28,5.28,0,0,0,.78-4.82Z"/><path class="cls-3" d="M285.85,49.67a3.11,3.11,0,0,1-.39-3.19A14.32,14.32,0,0,1,290,40a11.09,11.09,0,0,1,14,0,6.1,6.1,0,0,1,1.32,1.17c.39-.39.86-.86,1.32-1.25-.47-.47-1-1-1.48-1.4A14.42,14.42,0,0,0,297,35.82,13,13,0,0,0,289,38.7,15.38,15.38,0,0,0,283.91,46a5.39,5.39,0,0,0,.62,4.74,3.71,3.71,0,0,0,3.26,1.87h11.27a7.58,7.58,0,0,1,.23-1.79H287.79a2.32,2.32,0,0,1-1.94-1.17Z"/><text class="cls-2" transform="translate(291.14 101.62)">8 Guests</text><path class="cls-4" d="M219.19,56.29h7.12v7.12h-7.12Zm-58.73,0h7.12v7.12h-7.12ZM165.33,26h56.12l5.81,7.12H159.51Zm8.48-9.79H213v8H173.81Zm-5.34-8H218.3A2.64,2.64,0,0,1,221,10.91V24.26h-6.23v-8.9a.92.92,0,0,0-.89-.89h-41.1a.92.92,0,0,0-.72.89v8.9H165.8V10.91A2.64,2.64,0,0,1,168.47,8.24Zm0-1.78A4.46,4.46,0,0,0,164,10.91v13.9l-7.81,9.54a5.41,5.41,0,0,0-1.08,3.25V55.4a.92.92,0,0,0,.89.89h2.67v8a.92.92,0,0,0,.89.89h8.9a.92.92,0,0,0,.89-.89v-8h48.05v8a.92.92,0,0,0,.89.89h8.9a.92.92,0,0,0,.89-.89v-8h2.67a.89.89,0,1,0,0-1.78H156.9V37.6a2.64,2.64,0,0,1,2.67-2.67H227.2a2.64,2.64,0,0,1,2.67,2.67V48.28a.89.89,0,1,0,1.78,0V37.6a4.88,4.88,0,0,0-1.08-3.25l-7.81-9.54V10.91a4.46,4.46,0,0,0-4.45-4.45Z"/><text class="cls-2" transform="translate(165.47 101.62)">6 Beds</text><path class="cls-1" d="M453.21,20A44.77,44.77,0,0,0,421.47,32.9a1.5,1.5,0,0,1-1.2.59,1.14,1.14,0,0,1-1-.75,1.25,1.25,0,0,1,.34-1.4h0a45.13,45.13,0,0,1,6.1-5.12,48,48,0,0,1,61.14,5.1A1.25,1.25,0,0,1,487,33.2a1.27,1.27,0,0,1-1.91-.15h0a44.27,44.27,0,0,0-9.86-7.42A45,45,0,0,0,455.73,20c-.84-.05-1.67,0-2.52,0Z"/><path class="cls-1" d="M453.33,27.24A37.71,37.71,0,0,1,480,38.12a1.24,1.24,0,0,1,.34,1.63,1.16,1.16,0,0,1-1.45.53,1.29,1.29,0,0,1-.57-.39A34.54,34.54,0,0,0,459,30.1c-11.57-1.74-21.71,1.41-30.35,9.34l-.51.48a1.22,1.22,0,1,1-1.69-1.75h0a32.58,32.58,0,0,1,3.35-3,37.77,37.77,0,0,1,22.73-8h.78Z"/><path class="cls-1" d="M453.26,36.88a28.31,28.31,0,0,1,19.49,7.8h0a2.87,2.87,0,0,1,.72.93,1,1,0,0,1-.26,1.43,1.25,1.25,0,0,1-1.66-.1,25.08,25.08,0,0,0-6.23-4.58,25.94,25.94,0,0,0-30.15,4.28c-.7.68-1.41.76-2,.21s-.47-1.29.28-2a28.29,28.29,0,0,1,19.76-8Z"/><path class="cls-1" d="M453.21,46.58a18.72,18.72,0,0,1,12.92,5.18,1.4,1.4,0,0,1,.53,1.61c-.33.9-1.37,1-2.17.22a15.22,15.22,0,0,0-6.76-3.91,16,16,0,0,0-15.79,3.91,1.29,1.29,0,0,1-1.64.3,1.15,1.15,0,0,1-.52-1.39,1.4,1.4,0,0,1,.47-.68,18.7,18.7,0,0,1,13-5.23Z"/><text class="cls-2" transform="translate(423.38 101.62)">Free Wifi</text></svg>