<svg id="Layer_2" data-name="Layer 2" xmlns="http://www.w3.org/2000/svg" viewBox="0 0 219.32 109.23"><defs><style>.cls-1{fill:#e0982d;}</style></defs><title>Artboard 17</title><path class="cls-1" d="M173,14.22l-2.77,3.35a14.88,14.88,0,0,0-3.16,2.49l-.58.38L161,24.39c-.16.1-.37.23-.66.38s-.51.28-.66.38a11.77,11.77,0,0,0-2.36,2Q153.24,29,148,30.9l-1.88-.59a3.61,3.61,0,0,1-1.93-.15,1.64,1.64,0,0,1-.54-.56,4.83,4.83,0,0,1-.57-1.86,1.94,1.94,0,0,1,1.22-.91,6.85,6.85,0,0,0,2.2-1.45,9.05,9.05,0,0,1,1.22-.91,15.14,15.14,0,0,0,2.52-2l.35-.23c.15-.1.37-.23.66-.38s.54-.31.77-.46a2.4,2.4,0,0,0,.53-.45,16,16,0,0,0,2.91-1.62l1.39-.91a19,19,0,0,1,2.87-1.69,1.8,1.8,0,0,0,.92-.61,42.9,42.9,0,0,1,8.14-4.25q.51-.23,3.54-1.93a8.5,8.5,0,0,1,1.21.83A12.34,12.34,0,0,1,173,14.22Z"/><path class="cls-1" d="M207,104.15c.12-.22.1-.75-.21-.66l-.27.87Z"/><path class="cls-1" d="M205.06,102.4a2.27,2.27,0,0,0-.66,2c.4-.83.47-.47.91-1.46.31-.09.51.31.43.64.12-.22.45.22.65-.32-.35-.71-.84-.76-1.39-.23C204.9,102.79,205,102.56,205.06,102.4Z"/><path class="cls-1" d="M175.79,99.33l.18.11A.33.33,0,0,0,175.79,99.33Z"/><path class="cls-1" d="M157.6,98a.21.21,0,0,0,.21-.18C157.69,97.9,157.58,97.95,157.6,98Z"/><path class="cls-1" d="M154.53,96.91l.18.07C154.65,96.9,154.58,96.85,154.53,96.91Z"/><path class="cls-1" d="M175.79,99.33l-.47-.3C175.27,99.32,175.56,99.26,175.79,99.33Z"/><path class="cls-1" d="M200.88,104.29a.65.65,0,0,0,.28-.22l-.25.08Z"/><path class="cls-1" d="M183.85,99.06H184a2.89,2.89,0,0,0,.14-.35Z"/><path class="cls-1" d="M190,99.28c-.14,0-.23.71-.3,1,.1-.3.21-.45.33-.5A2.38,2.38,0,0,0,190,99.28Z"/><path class="cls-1" d="M199.69,101.17l.18-.09Z"/><path class="cls-1" d="M179.45,98.64a1,1,0,0,0,0-.27A.72.72,0,0,0,179.45,98.64Z"/><path class="cls-1" d="M8,107.79c0-.05,0-.09,0-.13S8,107.79,8,107.79Z"/><path class="cls-1" d="M.35,105.76l.08-.07c0-.14-.07-.27-.11-.41Z"/><path class="cls-1" d="M148.87,95.73l0,0C149.05,95.67,149,95.68,148.87,95.73Z"/><path class="cls-1" d="M96.51,95.34c.59.67-1,.86-.07,1.61C96.36,96.65,97.25,95.77,96.51,95.34Z"/><path class="cls-1" d="M200.73,104.19a1.3,1.3,0,0,1-.25,0A.38.38,0,0,0,200.73,104.19Z"/><path class="cls-1" d="M96.44,96.95h0l.09.07Z"/><path class="cls-1" d="M135.73,95.79a1.07,1.07,0,0,0,.12.33A.71.71,0,0,0,135.73,95.79Z"/><path class="cls-1" d="M145.47,97.15l-.24-.11A.51.51,0,0,0,145.47,97.15Z"/><path class="cls-1" d="M130.62,96.69c-.13-.06-.17-.17-.35-.07a.39.39,0,0,0,.05.09C130.39,96.61,130.47,96.57,130.62,96.69Z"/><path class="cls-1" d="M125.34,96.57a1.44,1.44,0,0,0,.09.15l.17,0Z"/><path class="cls-1" d="M23.6,105.07a2.82,2.82,0,0,1-.32-.64C23.42,104.95,22.68,105.22,23.6,105.07Z"/><path class="cls-1" d="M200.91,103.87c0,.19-.09.28-.18.31l.18,0A.49.49,0,0,0,200.91,103.87Z"/><path class="cls-1" d="M130.26,102.61l-.83-.14A2.94,2.94,0,0,0,130.26,102.61Z"/><path class="cls-1" d="M61.11,102.21l-.19.1A.16.16,0,0,0,61.11,102.21Z"/><path class="cls-1" d="M126.94,102.51a1.34,1.34,0,0,0-.46-.53.69.69,0,0,0-.1.19Z"/><path class="cls-1" d="M23.27,104.42h0Z"/><path class="cls-1" d="M18.09,106.9c.78-.08.23-1,.32-1.59.9-.4.53.66.92,1.12.55-.34.88-1.29,1.32-1.31.05.16.15.2.07.42.52-.86,1.82-.29,2.43-1.35a.7.7,0,0,1,.12.23,4.74,4.74,0,0,1-.27-1.33c.35-.05.59-.69.8-.06-.22,0-.21.26-.29.48l.34-.32c.44.89-.47.37-.39,1.05.69-.38,1.44-1.23,2-1,.22.89-1.26.44-.43,1.16l-.9-.25c.82,1.35-.53,0,.25,1.41,1.15.14,1.21-.59,2.36-.45.2-.53-.16-.73,0-1.26,1.51-1.07,1.5,2.14,2.54.81.24-.63.25-1.79,1.14-1.27l-.18,1.05c1.1,0,.48-1.54,1.69-1-.17.41-.83.43-.65.53.82.73.47-.63,1-.68l.2.9c1.15-.24,2.38-1,3.66-1.27,0,.28-.25.58.08.83,1.59-.59,3.49-.18,5.09.23l.54-.83c.14,0,.28.33.14.5.63.25,0-.5.27-.83.35-.08.49.42.29.67,1-.73,3-1.62,4.19-.85l-.21.25c.91.26.9-1.66,1.77-1l-.15.15c2,.22,4-.62,5.58.47.22-1.15,1.93.39,2-1.18,1.14.74.84,1,2.42,1.49.42.06.57-1,1.08-1.19l0,.82.66-.89.41,1,.47-.23a.65.65,0,0,1-.4-.59c.74-.4,1.86.5,1.89.92l1.75-.77c0,.33-.32.46-.55.68.92-.88.2.86,1,.06-.12-.18,0-.49.06-.66a2.25,2.25,0,0,0,2.16.21l-.12.57c1.32.1,2.77-.4,4.25-.41-.54-.25-.45-1.24,0-1.34l.2.87c.27-.54-.46-.32.09-1,.56.09.4,1,.09,1.27l.67-.32c0,.26-.11.4-.14.73.26-.55,1.18.85,1.56-.1l0,.26c1.48,0,2.15-.34,3.35-.4,0-.75.48-.59.83-1.21a9.13,9.13,0,0,0,3,.71c.74-.39.21-.64.54-1.09.07.68,1.13.6.59,1.1A10.22,10.22,0,0,0,85,101c-.18-.28-.38-.39-.28-.63.29-.12.67.27.64.6l-.08.07c1.81-1.08,4.23,2,5.67.53l-.08.07,1.5-.75c.69.12-.41.52.1.94,1.62-1.15,2.57.16,3.9-.6,1,2,3.67-.15,5.07,1.14l-.08-.48c.36-.47.44.27.7.38,0-.37-.39-.43-.17-.69,3.06-.6,6.31.72,9.44,1.2,1.14.14.68-2.45,2.11-1.29l-.42.88c2.33-1,4.73.11,7-.76-.14.2-.15.47-.37.46.47.65,1.77.06,1.79-.47.35.06.07.47.29.74.47.39,1.22-.8,1.46-.16,0,.1-.14.21-.23.25.32-.31,1.46.1,1.17-.64.84.37,1.63-.31,2.3.14.46-.83,1.45.43,1.61-.73-.09,1.21,1.47,1,2,.47-.19.36.46.39.24.89.61,0,1.18-.21,1.09-.83,1.09,1.48,2.3-1.1,2.89.78a30.75,30.75,0,0,1,5.19-1.22c-.1,1.2-1.82.07-1.78,1.33,1.57-.45,2.5-1.46,4-1.12.39.18-.24.52-.38.72,1.57-.45,3,.2,4.41-.41,0,.11-.16.23-.31.32.27,0,.63.2.62-.35l-.27.14c-.41-.81,1.14-1.63,1.2-2-.52,1.56,1.35.44.55,2.4a.76.76,0,0,0,.39-.72c.26.11.34.33.05.74,1-.27.66-.86,1.55-.82,0,.27-.2.36-.3.67.47-.5.94-1,1.68-.76-.05.16,0,.37-.19.36,1.29,0,2.24-1.28,3.63-.72-.46,1.13.46.4.5,1.4l.77-.26-.28-.5c.66,0,1.28-.65,1.84-.3l-.51.39,1.25-.13-.69-.41c.69-.48,0-1.26.85-.95-.18.09.66,0,1,.65h0c.34-.3.69-.62,1.17-.35.11.32-.15,1.1-.08,1.31.36-.82,1.56-.16,2-1a1.43,1.43,0,0,0-.14.83l.3-.67c.3.23.34.34.27.75.92.17-.24-1.28.84-.68-.09.05-.05.15-.24.25,1.09.33,2.15-.33,3.15,0,.25,1-.9.21-.59,1.07,1.47-.12,3.08-1.07,4.48-.77l-.26-.12c.26-1.41,1,.75,1.77.11-.18.1-.27.78-.21.62,1,.27,2-.26,3.49-.64l-.2.36c.55.35,1.49.25,2.1.45.2-.35.55-.28.36-.82,1.79,2.17,3.68-.9,5.28.92-.2,0-.5.29-.34.3l1.45-.25c-.08-.62-.17-.38-.44-.88a1.16,1.16,0,0,1,1-.59c-.67.37,0,1,.21,1.35,0-.19.07-.39.06-.59.69,1.14.19-1.23,1.18-.43l-.07.32c.39-.14.77-.55,1.18-.43.13.72-.43.31-.49.89.58,0,1.22-1.28,1.71-.54-.26.18-.61.17-.87.35.53.87.6.66,1,.82l0,0,1,.44-.24-.24c.83-1.82,1.5-.25,2.55-1.41-1,1.1-.2.66-.32,1.46.24.24.6.51.48.73.5-.62.74.56,1.45-.36,0,.26.49.05.35.7.61-.17-.12-.46,0-.78,1-.83,2.11,1.21,3.52.06,1.18-.43,1.45-1.3,2.54-1.67.33.44-.35.93-.35.93a1.33,1.33,0,0,0,1.56.11c-.13.22,0,.42.13.72.44,0,.35-.93.91-.51a4.17,4.17,0,0,1-.5,1c.53-.21,1.07-.66,1.63-.87.11.46-.37.67-.57,1,.62-.17,1.59-.32,1.82-1l-.37-.28c.22,0,.07.62-.1.74-.55.53-.73-.29-.74-.56l.39-.14c-.3-1.55-1.55.15-2.31,0l.39-1.09-.85.87c-.15-.3-.23-.93.16-1.07-.52-.58-.51.37-.95-.27a.14.14,0,0,1,0-.19l-.56.3c.12-.23,0-.79.28-.61-.93-.7-1.61.74-1.92-.12l.08-.06c-1.36.3-.18.81-1.24,1.7l-.56-2-.18.81c-.14,0-.41-.11-.34-.44-.55.53.07.36-.26.87-.62-.78-1.86.24-1.93-1.07-.28.6.61.51-.13.9-.12-1.41-.84.19-1.41-.49.23-.71.78-.29.21-1-.44,1.2-1.17-.34-1.7-.13-.08,1-1.14.34-2,.61.07-.32-1.59-.63-2.37-1l0-.16c-.21,1-1,.74-1.64.9a1.19,1.19,0,0,1,.52-1.05l-.57,0a.93.93,0,0,1-.71.55l.18-.72c-.76,0-1.56.77-2.51.23-.09.68.67,1.95-.38,2.34,0-.37,0-1,.25-1.14-.09,0-.33.29-.5.12l.44-.6c-.43-.3-.26.51-.61.43,0-.53-.24-.39-.17-.81.09,0,.3.24.44,0a1.57,1.57,0,0,1-1-.87c0,.3,0,.71-.33.76-.76,0-.22-.65-.65-.95-.2.36-.66-.05-.72.74-.22,0-.24-.38-.32-.6-.41.33-1.83,0-1.43.87l.1.06-.07,0h0c-1.32.73-2.63-.57-3.92-.28V99c-.77.27-1.69.1-2.26.65-.22,0-.51-.5-.4-.81-.59.17-.67.47-1.48,0,.6-.43-.18-.42.61-.31-.74-.26-.89-.69-1.73,0,.31-.66-.53-.88-.89-.69l.51.51a2.66,2.66,0,0,1-1.11-.07l.23-.88c-1.49-1.15-2.86,1.71-4-.15-.43.6.82.47.42,1.19-.7-.15-1.39-1.46-1.61-1.47-1-.54-1,1.26-2,.88a1.09,1.09,0,0,1-.57,1.44c-.7-.15-.82-1.37-.36-1.6.17,0,.25.09.24.19.23-.1.54-.23.27-.58l-.11.31c-.34-.34-1.32-.35-1.07-.86-.55.28-.25.51.14.69-.89-.5-1.42-.08-2.34-.43.14.18.26.56.12.55-1.36-.45-.63.57-1.56.67-.51-.51.23-1.14-.72-.78-.56-.35-.09-.85.15-1.09-.88.57-1.58-.47-2.06-.6l.46-.24a1.28,1.28,0,0,1-.72.12l.23.64c-.26-.12-.48-.13-.47-.39-.29.41.17,1.06-.39,1.61-.34-.33-1.08.31-1.18-.53,1.1.32-.09-.85.85-1a.74.74,0,0,1-.67,0c0-.1,0-.17.12-.22-1-.78-.52.94-1.62.88.16-.47-.22-.91-.41-.81.44,0,.18.8-.23,1.15-.69-.39-.77.25-1.14.2l.41.19c-.16.47-.51.4-1,.53,0-.37.45-.24.28-.41-.57.82-1.2-.9-2-.36-.34-.33,0-.89-.31-1.12-.87.59-.9-.68-1.81-.2.24.64.29.49-.36,1.09l1.49-.4-1,.9c.44,0,.95-.37,1.21-.26-.47.51-.41.35-.22.88-.58-1-1.22.52-1.9-.15l.07-1.58c-1-.74-1.9.75-3.26.31l.43.29c-.2.62-.85.06-1.3.3.06-.53-.22-.73-.4-1.06,0,.39-1-.07-1.16,1l-.59-.71c-1.1-.32-1.3,1.46-2.36,1.25.34-.56-.14-1,.58-1.34-.36,0-.67-.12-.69.24-.2-.34-1,.68-1.32.17-.16.23-.22.78-.62.72a.47.47,0,0,1,0-.26c0,.26-.63.34-.3.93-1.06-1.69-3.06,0-4-1.39a16,16,0,0,1-2.42.35c0-.16,0-.26.14-.21-1-.5-.63,1.51-1.72.94-.55-.86.6-.45.25-.78-.12-1.74-1.34.22-2.06-.81l.18-.1c-.56-.6-1.4.64-2.33.5a.5.5,0,0,0,0-.26,4.74,4.74,0,0,1-2.75,1.38c.29-.67.41-.35.25-1-.4.09.1,1.11-.7,1.29-.26-.38-.83-.71-.9-1.45l.75,0c-.37-1-1,0-1.37-.15l.06-.42c-1.16.12-1.19,1.17-2.43,1.07l.13.32c-.69,1-.56-.59-1.25.17l-.2-1.06a11.08,11.08,0,0,1-2.38,1.18c.46-.78,1.4-1.16,2-1.62-.44,0-1.51.06-1.75.57.18-.1.41-.35.58-.19a2.41,2.41,0,0,1-2.15,1.19c.17-2-2.3-.51-2.94-2.1-1.57.76-3.11-.32-4.94-.19.65,1.59-.53,0-.42,1.68-.42.11-.59.08-.62,0l-1.29-1c-.31-.47.4-.36.36-.73-.93-.12-.39-.69-1-1.12.13.58-.32.84-.85.62l.75.75c-1.3.87-1.13-1.37-2.44-.5l.41-.52c-.67.3-2.49,0-3.14,1.31-.12-.19-.28-.63,0-.75-1.61-.2-3.57,1.41-4.83.64l.12-.4c-.3.12-.51.76-.89.37,0-.17.12-.4,0-.42-.16.14-.79.72-1.19.49l.33-.46c-1.58-.49-2.39,1.14-3.7,1.44,0-1.18-1.26-1.53-1.88-1.71l0-.17c-1.83-.11-3.09,1-4.77,1.53-1.09-1.26-3.57-.46-5.29-1.1.27.2,0,.92-.31,1-.4-.22-1.07.86-1-.22l.14,0c-.34-1-1.14-.73-1.78-.74l-.05,1.41c-1.74-2-4.33.93-5.31-.88-.39.37-.88.38-1.27.75v-.76a8,8,0,0,0-3.05,0l.25-.56c-.78,0-.87,2.24-1.58,2.33l-.27-1.11c-1.35.1-2.78-.81-4.06.29,0-.17,0-.49.25-.55-.64,0-2.51-.61-2.19.92-.08-1-1.4,0-2.1.47l.06-.75c-.55,1-.55,1.25-1.4,1.56-.21-.08-.22-.58.06-.41-.71-.35-.48.74-1.33.39l.27-.49c-.7,0-.63.25-1,.83-.42.33-1.34-.08-1.49-.74-.06.42-.4,1-.83.84a.51.51,0,0,1,.13-.5c-1.21-.41-1.67,1-2.53.34a.71.71,0,0,0-.17-.43,6.48,6.48,0,0,1,1.61,0c-.05-.68-.82-.74-.29-1.74-.56.57-1.5,1.77-2.26,1.51a1,1,0,0,1-.12-.23l.07-.08a.44.44,0,0,0-.45.15,1.48,1.48,0,0,0-.62-.16c-.14-.56-.89-.23-1.27-.23.1.75-.4.67.11,1.25-.06,0,.06-.1.31-.15a.37.37,0,0,0,.15-.09l0,.07.92-.13c-.26.4-.54.75-1,.37-.15.5-.31,1-.41,1.25-.6-1-1.64-1.48-1.84-2.12-1.1.53-2.67.56-3.24,2-.3.22-.41-.36-.56-.57.17-.16.4-.16.48-.38-.61.43-1.91.35-2,1.34-.86-.36.36-1-.74-.67l.12-.32c-2.4-1.33-3.29,2.87-6,1.21.19.1.28.15.33.31a10.49,10.49,0,0,0-4.26.47,7.61,7.61,0,0,1-4.3.19c-.83-.15-.81.48-1.2,1l-.31-.77-.65,1.06c-1,.89-2.36-1.56-3.57,0l.3.5c-.54,0-1.58.66-1.63,0,0,.11,0,.59-.31.36l-.11-.41-1.11,1C1.71,104.32,2.55,102.7,1,103c-.5.29-1.28,1.64-1,1.84a.71.71,0,0,1,.79.48l-.42.36c.29,1.22.41,2.5,1.64,3.05l.57-.94.4.52-.64.21c.51.45.61-.09.79-.5a1.09,1.09,0,0,0,.49.57l.51-1.33c.2.45-.13,1,.45,1.16.25-.62-.6-1-.07-1.48.51.46.5.94.84.36a.62.62,0,0,1-.07.7c.31-.47,1-.4,1.11-1.08.55.61,1.35-.45,1.54.72a2.19,2.19,0,0,1,.91-1.17c-.43,1.52,1.42-.19,1.51,1.33.29-1.33,1.75-.85,2.55-1.7,0,.11-.1.33-.19.27.53,0,.74.37,1.1.56-.1-1,.66-1.41,1-2.12.78.9-.2,1.28.15,2.2-.16-.83,1-1,.65-1.68.58.55.46.24.84,1.07-.1-1.31.42-.28.71-1.13.79.55.35,1.19,1.06.69C18.71,106.35,18.09,106.9,18.09,106.9Zm18.13-4.24h0l-.38.07Zm1.56-.14a4.12,4.12,0,0,0-.68,0c-.08-.25,0-.53.12-.52C37.15,102.2,37.53,102.32,37.78,102.52ZM34,97.61c.24-.13.34,0,.38.16a2.61,2.61,0,0,0-.43.13L34,98A1.47,1.47,0,0,1,34,97.61Z"/><path class="cls-1" d="M33.67,98.63s-.05.05-.1.06l.16.16.07-.24Z"/><path class="cls-1" d="M176,99.46l0,0a.29.29,0,0,1,.06.11A.64.64,0,0,1,176,99.46Z"/><polygon class="cls-1" points="59.39 102.65 59.38 102.46 59.25 102.63 59.39 102.65"/><path class="cls-1" d="M184.49,102.52a.37.37,0,0,0,.1.2A.49.49,0,0,0,184.49,102.52Z"/><path class="cls-1" d="M188.21,102.9l.51.3A2.1,2.1,0,0,0,188.21,102.9Z"/><path class="cls-1" d="M191,103.44a1.81,1.81,0,0,0,.07-.32h0Z"/><path class="cls-1" d="M145.5,102.18l-.11,0C145.12,102.35,145.3,102.3,145.5,102.18Z"/><path class="cls-1" d="M159.12,101a2.4,2.4,0,0,1-.45.34C158.9,101.36,159.09,101.38,159.12,101Z"/><path class="cls-1" d="M130.35,102.63h-.09Z"/><path class="cls-1" d="M158,101.25a.57.57,0,0,0,.63,0A.84.84,0,0,0,158,101.25Z"/><path class="cls-1" d="M203.43,104.51l.14,0a.32.32,0,0,1,0-.12Z"/><path class="cls-1" d="M203.59,104.43l.16-.08C203.68,104.35,203.62,104.35,203.59,104.43Z"/><path class="cls-1" d="M204.08,104.18l-.33.17C203.86,104.36,204,104.39,204.08,104.18Z"/><path class="cls-1" d="M199.66,103.94l-.06.27A.82.82,0,0,0,199.66,103.94Z"/><path class="cls-1" d="M198.51,104c.27.08.65.62,1,.47l0-.21C199.4,104.61,198.8,103.51,198.51,104Z"/><path class="cls-1" d="M193.9,100.31l1,.27c-.15-.3-.35-.7.09-.75C193.78,98.9,195.16,100.5,193.9,100.31Z"/><path class="cls-1" d="M190.93,99.72c.53-.1,0-.42.06-.58C190.64,99.38,190.56,99.44,190.93,99.72Z"/><path class="cls-1" d="M169.27,98.56l.08-.68C168.95,98,169.34,98.14,169.27,98.56Z"/><polygon class="cls-1" points="164.97 101.9 165.34 102.34 165.55 101.73 164.97 101.9"/><polygon class="cls-1" points="162.74 96.93 162.92 96.84 162.24 97.06 162.74 96.93"/><path class="cls-1" d="M126.29,95.92l.1.84C126.67,96.61,126.75,95.67,126.29,95.92Z"/><path class="cls-1" d="M110.54,96.55c-.17-.42-.61-.7-.88-.29C110,96.32,110.36,96.65,110.54,96.55Z"/><polygon class="cls-1" points="63.27 95.73 63.58 95.44 62.99 95.7 63.27 95.73"/><path class="cls-1" d="M30.25,2.89q.51,1.19,1.53,3.23a8,8,0,0,1,.51,3.4,3.51,3.51,0,0,0,.17,1.36q2.38.85,5.61,2.21a12.29,12.29,0,0,0,1.1.93,14.08,14.08,0,0,1,1.27,1.1,17.8,17.8,0,0,1,2.38,2.72c.11.23.25.48.42.76s.31.54.42.76v.17q1.87,1.36,3.57,5.95a10.45,10.45,0,0,0,.68,2l.17.68a1.56,1.56,0,0,1,0,1,9.34,9.34,0,0,0,.08,1.19,9.29,9.29,0,0,1,.08,1v.34l-.17.34.17.68c0,.34,0,.79-.08,1.36a6.71,6.71,0,0,1-.25,1.36,2.39,2.39,0,0,1-.17,1,4.39,4.39,0,0,0-.17,1.36,5.44,5.44,0,0,1-.08.85,4.91,4.91,0,0,0-.08.68,2.11,2.11,0,0,0-.17,1.36A7.35,7.35,0,0,1,47.07,42a2.7,2.7,0,0,0,0,1.36c0,.23,0,.62-.08,1.19a3.88,3.88,0,0,1-.25,1.19,9.58,9.58,0,0,1-.34,2.21c-.23.91-.45,2-.68,3.4a16.35,16.35,0,0,1-2.21,6.63l-.51,1a7,7,0,0,1-.85,2.21q-1.7,2.72-2.38,4.08a2.67,2.67,0,0,1-.51.68,2.6,2.6,0,0,0-.51.68,23.75,23.75,0,0,0-2.38,2.55,2.58,2.58,0,0,1-1,.85,5.52,5.52,0,0,0-2.55,2.38l-.85.42-.85.42q-.34,1.36-.51,2.21a1.39,1.39,0,0,1,.34,1v1.7a6.49,6.49,0,0,0,.17.93c.11.51.11.82,0,.93a5,5,0,0,1,.17,1.7v1.7a3.34,3.34,0,0,0,.08.59,3.73,3.73,0,0,1,.08.59.7.7,0,0,1,.17.51q0,.17.51,4.76a21.12,21.12,0,0,1-.85,5.61.49.49,0,0,1-.17.34.49.49,0,0,0-.17.34v.68A6.11,6.11,0,0,0,29.74,99a1.14,1.14,0,0,1-.51,1,5,5,0,0,0-1,1.7c0,.11-.11.25-.34.42a4.68,4.68,0,0,0-.51.42,3,3,0,0,1-.34.85,1.34,1.34,0,0,1-.42-.08,1.44,1.44,0,0,0-.42-.08l-1.36,1.36a5,5,0,0,0-.51.68,5.7,5.7,0,0,1-.68.85h-.85a1.53,1.53,0,0,0-.51,1.36.84.84,0,0,0-.42.17.82.82,0,0,1-.42.17c-.11.23-.4.68-.85,1.36h-.51A7.56,7.56,0,0,1,17.51,107q-1.7-2.71-2.55-4.25a1.05,1.05,0,0,1-.25-.51,3.64,3.64,0,0,0-.25-.68l-.34-.68q-.17-.34-1.36-2.38a10.6,10.6,0,0,1-.34-1.44,5.64,5.64,0,0,0-.34-1.27,14.43,14.43,0,0,1-.34-2.72,5.26,5.26,0,0,1-.34-.93,3.58,3.58,0,0,1-.17-.93,7.59,7.59,0,0,1-.25-1.7c-.06-.79-.08-1.36-.08-1.7a7.21,7.21,0,0,1-.25-1.61c-.06-.74-.08-1.22-.08-1.44a18.55,18.55,0,0,1-.25-2.55,8.5,8.5,0,0,0-.42-2.55,2.36,2.36,0,0,1,.17-1A5.43,5.43,0,0,0,10,78c-.06-.34,0-.57.08-.68v-1a12.73,12.73,0,0,1-.17-2.38V59.29a3.41,3.41,0,0,1,.08-.59,4,4,0,0,0,.08-.76,2.91,2.91,0,0,1,.17-1.19,11.66,11.66,0,0,1,.34-3.57V52a8.39,8.39,0,0,1,.34-3.06v-.34l.51-5.1A5.22,5.22,0,0,0,11.57,42a5.12,5.12,0,0,1,.17-1.53,20.58,20.58,0,0,0,.34-3.06,2.61,2.61,0,0,0,.34-1q.17-.85.34-2.46t.34-2.46q.17-1.53,1.36-6.79Q15.64,20,17,16.31V15.8l-.51-.51a10.45,10.45,0,0,1-3.91.68,41.16,41.16,0,0,1-5.27-3.4A1.49,1.49,0,0,0,7.07,12a1.51,1.51,0,0,1-.25-.76,1,1,0,0,1,.34-.68c.11-.11.28-.06.51.17a1,1,0,0,0,.68.34,7.1,7.1,0,0,0,1.7-.17,28.57,28.57,0,0,1,3.91-1.19l3.57-.51h1.87A3.88,3.88,0,0,0,20.23,7a11.3,11.3,0,0,1,1-3.4A8.62,8.62,0,0,0,21.59.68,11,11,0,0,0,22.78,0,17,17,0,0,1,30.25,2.89Zm-.34,54.53a2.62,2.62,0,0,1,.51,1.36,5.5,5.5,0,0,0,.34,1.36,22.2,22.2,0,0,0,1.7-2.55,8.41,8.41,0,0,0,.59-1.7,8.35,8.35,0,0,1,.59-1.7,27.45,27.45,0,0,0,1.87-8.83,2.36,2.36,0,0,1,.17-1,6.84,6.84,0,0,1,.08-.76,7.15,7.15,0,0,0,.08-.93,17.17,17.17,0,0,0-.34-3.91v-3.4A3.58,3.58,0,0,0,35.35,34a6.81,6.81,0,0,1,.08-.76c.06-.4,0-.65-.08-.76A6.59,6.59,0,0,1,35.1,31C35,30.38,35,30,35,29.73a12.88,12.88,0,0,0-.17-1.44,3.72,3.72,0,0,1,0-1.61,8.93,8.93,0,0,0-1.7-4.93c0-.11-.23-.28-.68-.51v2a15,15,0,0,1-.17,1.53,4.08,4.08,0,0,0,0,1.7,8.58,8.58,0,0,0-.17,2.38,2.39,2.39,0,0,1-.17,1,3.74,3.74,0,0,0-.25,1.19c-.06.57-.08.91-.08,1a2.82,2.82,0,0,1-.08.68,2.71,2.71,0,0,0-.08.68q-.51,3.57-.51,3.74v4.42a14.69,14.69,0,0,1-.34,2.72v3.74a4,4,0,0,1-.08.76,3.4,3.4,0,0,0-.08.59,5.44,5.44,0,0,1-.08.85,4.91,4.91,0,0,0-.08.68q0,3.57-.17,5.27A3.82,3.82,0,0,1,29.91,57.42Z"/><path class="cls-1" d="M98.88,86.13a3.86,3.86,0,0,0,.68,1,2,2,0,0,1-.17.59,1.84,1.84,0,0,1-.34.59,7.53,7.53,0,0,1-.68,1,7.61,7.61,0,0,0-.68,1,3,3,0,0,1-.85.25,4.89,4.89,0,0,1-.68.08c-.23.11-.48.25-.76.42s-.54.31-.76.42h-1.7a1.88,1.88,0,0,1-.85-.17,10.83,10.83,0,0,1-3.23-.34q-1.53-.51-1.87-.68a13.09,13.09,0,0,1-2.55-2.55,16.73,16.73,0,0,1-2.38-3.4,8.47,8.47,0,0,1-1.19-2.72,2.86,2.86,0,0,0-.17-.85,7.45,7.45,0,0,1-.25-.93,3.76,3.76,0,0,1-.08-.76v-.34a3.79,3.79,0,0,1,.17-.76,1.33,1.33,0,0,0,0-.93V75.26a8.69,8.69,0,0,0,.17-2.38.15.15,0,0,1,.17-.17.48.48,0,0,1-.17-.34L79.18,77a13.48,13.48,0,0,1-.68,1.7q-.51.85-2,3.74a15.63,15.63,0,0,1-2.21,2.55c-.23.23-.48.51-.76.85s-.48.57-.59.68A4.43,4.43,0,0,1,69.83,88a15.52,15.52,0,0,1-3.74.51,10.69,10.69,0,0,1-1.1-.08c-.51-.06-.88-.08-1.1-.08a11.85,11.85,0,0,1-6.62-2.55,10.21,10.21,0,0,1-1.53-1.19,13.25,13.25,0,0,1-2.55-3.4,24.64,24.64,0,0,1-3.06-7.47q-.17-1-.51-3T49.11,68a3.73,3.73,0,0,1-.17-1.19V61.33a30.21,30.21,0,0,1,.85-6.63,11.39,11.39,0,0,1,.08-1.27c.06-.51.11-1,.17-1.44a11.19,11.19,0,0,1,.25-1.36q.34-1.7.68-5.1.34-1.53,1-4.93a23.07,23.07,0,0,1,.68-2.72,23.47,23.47,0,0,0,.68-2.72,1,1,0,0,1-.17-.68,2.3,2.3,0,0,1,1.53-1h.51a27.76,27.76,0,0,0,3.74.85q4.42,1.87,5.1,2.21a1.84,1.84,0,0,0,.51.34,2.07,2.07,0,0,1,.51.34,25.72,25.72,0,0,0,1.87,2.55v3.57a6.6,6.6,0,0,0,.34,2.38,7.9,7.9,0,0,1-.17,4.25,10.07,10.07,0,0,0-.17,2.21v5.44a9.45,9.45,0,0,0-.34,2.21,20.71,20.71,0,0,0-.17,2.89,14.19,14.19,0,0,0,.34,3.4v2a3.71,3.71,0,0,1-.17.93,3.62,3.62,0,0,0-.17.93,11.56,11.56,0,0,1,.85,4.76v1.53a34.61,34.61,0,0,1,1.87,3.4l.68.68a1.09,1.09,0,0,0,1-.68,17.41,17.41,0,0,0,2.38-3.91,12.24,12.24,0,0,1,.51-1.36q.34-.51,4.25-7.81a33.27,33.27,0,0,0,2.55-7.3,3,3,0,0,1,.34-1.36q.34-1.19,1.53-4.84t1.87-5.52a3.14,3.14,0,0,0,.25-.85,5.44,5.44,0,0,0,.08-.85A5.42,5.42,0,0,0,85,44.34a2.42,2.42,0,0,0-.08-.51,2.19,2.19,0,0,1-.08-.51q0-.34,1-1.36a14.64,14.64,0,0,1,5.78,1.53,4.61,4.61,0,0,1,.85,1.19,16.83,16.83,0,0,1,.59,2.8q.25,1.78.42,2.46v.34a.68.68,0,0,0,.17.51v1.87c.23.23.34.4.34.51a1.34,1.34,0,0,1,.25.68,5.41,5.41,0,0,1,.08.68,6.87,6.87,0,0,0,.34,1.19,4.83,4.83,0,0,0-.17,2.89,3.34,3.34,0,0,0,.08.59,1.14,1.14,0,0,0,.25.59l.51,1.53a7.73,7.73,0,0,0-.17,2v.34a.68.68,0,0,0,.17.51,8,8,0,0,0,.17,1.87v4.08l.34.68v3.23L96,76.45a1.36,1.36,0,0,0,.08.42,1,1,0,0,0,.25.42,9.58,9.58,0,0,1,.25,2A7.7,7.7,0,0,0,97,81.71a7.14,7.14,0,0,0,0,2.21,1.39,1.39,0,0,0,.51.85Z"/><path class="cls-1" d="M142.54,43.49a2.06,2.06,0,0,1,1.87-.17,13.61,13.61,0,0,1,.51,1.36,4.7,4.7,0,0,0-.34,2,4.67,4.67,0,0,1-.25.93,2,2,0,0,0-.08,1.27,5.06,5.06,0,0,0-.42.51,4.87,4.87,0,0,1-.42.51,8,8,0,0,0-.17,1.87,13.91,13.91,0,0,0-1.19,2v.51q-.68,1.53-1.78,4.33l-1.44,3.65a7,7,0,0,0-1.53,3.74,2.94,2.94,0,0,0-.34.85q-.51,1.19-.85,2.21a3.61,3.61,0,0,0-.68.85,3,3,0,0,0-.25.85,5.13,5.13,0,0,0-.08.85q-.17.34-1.19,2a3.64,3.64,0,0,1-.08.59,3.81,3.81,0,0,0-.08.76,4.36,4.36,0,0,0-1.36,2.55,9.59,9.59,0,0,1-2.21,4.25,9.79,9.79,0,0,1-2,3.4,20.8,20.8,0,0,1-7.47,4.25,1.76,1.76,0,0,0-.68.34,1.65,1.65,0,0,1-.85.34,57.12,57.12,0,0,1-6.12,1,3.65,3.65,0,0,0-.59.08,3.41,3.41,0,0,1-.59.08,4.52,4.52,0,0,1-2-.51,6.94,6.94,0,0,1-1.19-.34,6.62,6.62,0,0,1-1.53-.68,11.79,11.79,0,0,1-3.74-2.72,11.35,11.35,0,0,1-1.7-2.72,25.48,25.48,0,0,1-2-6.46,1.88,1.88,0,0,1-.17-.85V72.2q.34-3.4.51-4.93a4.47,4.47,0,0,0,.17-1.36,26.78,26.78,0,0,1,1.53-6.63,2.74,2.74,0,0,0,.34-1.19,6.68,6.68,0,0,1,.85-2.38q1.53-3.91,1.87-4.93a19.94,19.94,0,0,1,2-4.42,31.55,31.55,0,0,1,2.21-3.91,14.71,14.71,0,0,0,.93-1.27,12.35,12.35,0,0,1,1.27-1.61l.17-.34a1.94,1.94,0,0,1,.34-.51,13.08,13.08,0,0,0,1.36-1.1c.57-.51,1-.87,1.19-1.1q6.45-1.87,7-1.87a4.48,4.48,0,0,1,1.36.17,6.39,6.39,0,0,1,4.08,1.7,7.69,7.69,0,0,1,1.7,2.21,12,12,0,0,1,.68,2.89,17.43,17.43,0,0,1-.51,4.25l-.34.68a3,3,0,0,1,.17,1.19l-.17.34a4.09,4.09,0,0,1-1.61.51,6,6,0,0,0-1.44.34,4.86,4.86,0,0,1-.68-.08,5.47,5.47,0,0,0-.85-.08,6.82,6.82,0,0,0-1.36-.51,3.83,3.83,0,0,1-.51-.85c0-.23,0-.62.08-1.19s.08-1,.08-1.19a6.7,6.7,0,0,1,.17-.93,1.79,1.79,0,0,0,0-1.1,3.73,3.73,0,0,1-.25-1.19c-.06-.56-.08-.9-.08-1h-.34a2.29,2.29,0,0,0-1,1.53,18.85,18.85,0,0,0-1.19,2.55q-.17.51-.51,1.27c-.23.51-.42,1-.59,1.44a12.28,12.28,0,0,0-.42,1.36q-.17.68-.59,1.87t-.59,1.7q-.17.68-.51,2c-.23.85-.4,1.5-.51,2a11.73,11.73,0,0,1-.85,3.23l-.51,2a3.18,3.18,0,0,1-.34,1.7,1.35,1.35,0,0,0-.17.85,18.66,18.66,0,0,1-.17,1.87,17.84,17.84,0,0,0-.17,2V72.2a10,10,0,0,0,.17,2.21,3.23,3.23,0,0,0,.25,1,3.49,3.49,0,0,1,.25,1.19v1.53A21,21,0,0,1,115,80.61a9.18,9.18,0,0,0,1.7,2.8,6.67,6.67,0,0,1,1.87.68l3.57-1.53.68-.68q.68-.85,4.59-5.95,1-1.7,3-5t2.8-4.84q.51-.85,1.36-2.63t1.36-2.63q1.36-2.72,2.38-5.27.51-1.19,1.44-3.57t1.44-3.57A40,40,0,0,0,142.54,43.49Zm-35,10.36h-.17l.17.17Z"/><path class="cls-1" d="M149.33,34.32a2.89,2.89,0,0,0,.85.34,3,3,0,0,0,1.36.34,13.5,13.5,0,0,1,1.7.51,3.13,3.13,0,0,1,1.36,1,2,2,0,0,0,.25.68l.42.85a8.67,8.67,0,0,0,1.19,1.87,7.32,7.32,0,0,1,.68,2.21v.51a3.65,3.65,0,0,1,.17,2.55,4.78,4.78,0,0,0,0,3.57v.17q.17.17,0,.51l-.17.34v3.06a5.27,5.27,0,0,1-.34,2.21v2.89c.23.23.4.34.51.34a16,16,0,0,0,2.21-2.38,8.32,8.32,0,0,0,1-1.19,4.14,4.14,0,0,0,1-1.36h.17a12.78,12.78,0,0,0,1.36-1.78,12.48,12.48,0,0,1,1.36-1.78c.11,0,.23-.11.34-.34l.17-.34a5.27,5.27,0,0,1,1.36-1.87,4.93,4.93,0,0,1,.85-1.36,8.41,8.41,0,0,0,.85-1.19c.11-.11.28-.31.51-.59s.4-.48.51-.59a2.15,2.15,0,0,1,1.19,0,1.56,1.56,0,0,1,.85.85,2.85,2.85,0,0,1-.17.85,2.75,2.75,0,0,0-.17.68l-.51,1q-1.53,2.38-1.87,3.06a5.92,5.92,0,0,1-.85,1.7,2.56,2.56,0,0,0-.85,1.36,5.92,5.92,0,0,1-.85,1.7c-.23.23-.34.4-.34.51a.69.69,0,0,0-.17.51,10.4,10.4,0,0,1-1.19,1.53c0,.11-.11.28-.34.51q-.34.85-1,2.21a4.79,4.79,0,0,0-.85,1,4.77,4.77,0,0,0-.85,1c0,.11-.11.28-.34.51l-2,2-1.7,1.7c0,.11,0,.17-.08.17s-.08.06-.08.17v.85a7.3,7.3,0,0,0-.34,2.72A3.89,3.89,0,0,0,156,71a5.48,5.48,0,0,0-.68,2.38v.17a2.87,2.87,0,0,1-.17.68,2.76,2.76,0,0,0-.17.85c.11,0,.17.28.17.85l-.17.68a2.66,2.66,0,0,0-.34.42.82.82,0,0,0-.17.42c-.11.45-.28,1.1-.51,2s-.4,1.5-.51,2a5.76,5.76,0,0,0-.17,1.87,6.68,6.68,0,0,1-.68,1.19v.85l-1,2.55a2.71,2.71,0,0,0-.34.42,2.87,2.87,0,0,1-.34.42,3.93,3.93,0,0,0-.51.85l-.68.68-1,1a23.21,23.21,0,0,1-3.4,1.53h-2.89a1.33,1.33,0,0,1-.85-.17,6,6,0,0,0-1.7-.17.69.69,0,0,1-.51-.17,5.21,5.21,0,0,0-1.53-.17c0-.11-.11-.17-.34-.17s-.34-.06-.34-.17a8.88,8.88,0,0,1-2.89-1.7,18.94,18.94,0,0,1-1.7-1.87l-.34-.68a1.39,1.39,0,0,0-.51-.85V85.28a.5.5,0,0,0-.17-.34L130,80.86v-.51a2.76,2.76,0,0,0-.34-1.19,3,3,0,0,0-.17-1.19,1.33,1.33,0,0,1-.17-.85,5.28,5.28,0,0,0-.34-2.21V69.65a.69.69,0,0,1,.17-.51,1.92,1.92,0,0,0,.17-.85v-.68a2.75,2.75,0,0,1,.17-.68,2.85,2.85,0,0,0,.17-.85l.51-2.55a1.35,1.35,0,0,0,.17-.85,1.34,1.34,0,0,1,.17-.85,30.29,30.29,0,0,1,1.87-5.95l.51-1q.17-.51.85-2.38a9.55,9.55,0,0,0,.42-1.1,9.23,9.23,0,0,1,.42-1.1,4,4,0,0,0,.51-.85l.51-1a14.83,14.83,0,0,1,1.36-2.72l1.53-2.55c.34-.45.79-1.1,1.36-2a20.65,20.65,0,0,0,1.19-2q1.7-2.38,2.55-3.4,1.53-1.53,5.1-1.7a.78.78,0,0,1,.34.08A.72.72,0,0,0,149.33,34.32ZM141,69.65a2.62,2.62,0,0,1,.17,1.53,4.92,4.92,0,0,0,.25,1.19,5,5,0,0,1,.25,1.19,5.62,5.62,0,0,1,.34,1.36,5.32,5.32,0,0,0,.34,1.53,6.7,6.7,0,0,0,.08.76,7.22,7.22,0,0,1,.08.93l.51,1.53a9.27,9.27,0,0,0,.85,2.21c0,.11.11.17.34.17a.82.82,0,0,1,.17-.42,2.66,2.66,0,0,1,.34-.42,5.32,5.32,0,0,0,1.36-2.89,3.78,3.78,0,0,1,.17-.76,3.71,3.71,0,0,0,.17-.93,6.6,6.6,0,0,1,.68-1.19,18.85,18.85,0,0,1,1.19-2.55,1.94,1.94,0,0,1,.17-.59,6.47,6.47,0,0,0,.25-.76,2.82,2.82,0,0,0,.08-.68,1,1,0,0,1,.17-.68,2.39,2.39,0,0,0,.17-1,2.72,2.72,0,0,1,.08-.68,2.82,2.82,0,0,0,.08-.68,1.93,1.93,0,0,0,.17-1.36l-.34-.34a9.53,9.53,0,0,0-1.19-.51l-.85-.34a3.56,3.56,0,0,1-1.19-.68,16.65,16.65,0,0,1-3.23-3.4h-.34a4,4,0,0,1-.25,1.1,4.05,4.05,0,0,0-.25,1.1,4.73,4.73,0,0,1-.17,1,4.61,4.61,0,0,0-.17,1,3.72,3.72,0,0,0-.25,1.19c-.06.57-.08.91-.08,1v.51A2.71,2.71,0,0,1,141,69.65Zm8.66-28.71c-.23.23-.34.4-.34.51q-.51,2.55-.51,2.89v5.61a.59.59,0,0,1,.17.42.57.57,0,0,0,.17.42v3.57a6.91,6.91,0,0,1,1.19,2,2,2,0,0,0,.68,1.36,1.1,1.1,0,0,0,.25-.51,2.35,2.35,0,0,0,.08-.51,11.71,11.71,0,0,0,.17-2.21c0-.11,0-.4.08-.85a3.29,3.29,0,0,1,.25-1v-2a2.42,2.42,0,0,0-.08-.51,2.25,2.25,0,0,1-.08-.51,21.92,21.92,0,0,0,.17-3.23,9.61,9.61,0,0,0-.34-2.21,2.82,2.82,0,0,1-.42-.68l-.42-.85a3.78,3.78,0,0,1-.51-.85A4.18,4.18,0,0,0,149.67,40.94Z"/><path class="cls-1" d="M218.48,45.87a1.6,1.6,0,0,1,.85,1,3.93,3.93,0,0,0-.51.85,5.24,5.24,0,0,0-.34,1,5.45,5.45,0,0,1-.34,1,1,1,0,0,0-.17.68,6.74,6.74,0,0,1-.85,2.38,2.71,2.71,0,0,0-.34,1.19,10.64,10.64,0,0,1-.68,2,2.71,2.71,0,0,0-.34,1.19,14.42,14.42,0,0,1-.85,2.55c-.23.68-.51,1.42-.85,2.21l-.17.17v.34a23.32,23.32,0,0,1-1,3.23c-.34,1.36-.51,2.1-.51,2.21a19.94,19.94,0,0,0-.76,2.63q-.43,1.78-.59,2.29a4.44,4.44,0,0,1-.17,1.36,8.62,8.62,0,0,0-.85,2.38V77a2.31,2.31,0,0,0-.51,1.19,2.5,2.5,0,0,1-.34,1,2,2,0,0,1-.17.59,1.94,1.94,0,0,0-.17.59,5,5,0,0,0-.51,2.55,4.66,4.66,0,0,0-.85,2.38A19,19,0,0,1,206.24,88a13.88,13.88,0,0,0-.85,2.72,7.18,7.18,0,0,1-.34,1.19l-.34.34a2,2,0,0,1-.34.51q-.68.34-2.38,1l-.34.17-.51.51h-.51a3,3,0,0,1-2.38.17,1.1,1.1,0,0,0-.85,0,4.43,4.43,0,0,1-1.36.17,15,15,0,0,0-2.21-.34,17.17,17.17,0,0,1-2.21-.68,2.88,2.88,0,0,1-1.53-1.19l-1.36-1.36a5.84,5.84,0,0,1-.17-2.38q-1.7-3.91-1.87-4.25a1.88,1.88,0,0,1,.17-.85,7.68,7.68,0,0,0-.08-.76,6.82,6.82,0,0,1-.08-.93c0-.23,0-.59-.08-1.1a11,11,0,0,1-.08-1.1,2.38,2.38,0,0,0,.17-1V75.6a5.06,5.06,0,0,1,.17-.85,1.56,1.56,0,0,0,0-1v-.59a2.41,2.41,0,0,1,.08-.59,2.82,2.82,0,0,0,.08-.68,5.53,5.53,0,0,1,.34-1.7c.11-.45.25-1.13.42-2s.31-1.58.42-2a.7.7,0,0,0,.17-.51.69.69,0,0,1,.17-.51,72,72,0,0,1,2.89-9.68,20.24,20.24,0,0,0,1-1.87,75.83,75.83,0,0,0,3.57-9,.69.69,0,0,0,.17-.51q0-.34-.51-.51a2.11,2.11,0,0,0-.76.42,1.83,1.83,0,0,1-.93.42,39.45,39.45,0,0,0-2.89,3.74.84.84,0,0,1-.17.42,2.81,2.81,0,0,1-.34.42,20.08,20.08,0,0,1-1.36,2.55,5.07,5.07,0,0,0-.76,1.1c-.28.51-.48.88-.59,1.1a14.83,14.83,0,0,0-1.36,2.72,3.41,3.41,0,0,1-1,1.7,23.55,23.55,0,0,1-1.7,4.25,6.15,6.15,0,0,1-.42,1.19,12.18,12.18,0,0,0-.59,1.7.49.49,0,0,1-.17.34,24.55,24.55,0,0,0-1.19,3.06,2,2,0,0,1-.17.59A5.82,5.82,0,0,0,181,70a2.7,2.7,0,0,0-.08.68,2.11,2.11,0,0,1-.17.76,1.84,1.84,0,0,1-.34.59,2.11,2.11,0,0,0-.17.93v.93L179.74,77a5.38,5.38,0,0,1-.08.68,1.33,1.33,0,0,1-.25.68Q178.21,81,178,81.37a2.59,2.59,0,0,0-.34,1c-.11.11-.31.34-.59.68a4.64,4.64,0,0,0-.59.85,7.8,7.8,0,0,1-.59.93,7.52,7.52,0,0,0-.59.93,2.12,2.12,0,0,1-.85.51q-.51.17-1.1.42c-.4.17-.71.31-.93.42a3.76,3.76,0,0,1-.76-.08,3.73,3.73,0,0,0-.59-.08,4,4,0,0,0-.76.08,3.79,3.79,0,0,1-.76.08,6.67,6.67,0,0,1-.93-.08,7.24,7.24,0,0,0-.93-.08,29.15,29.15,0,0,1-3.91-1.19l-1.19-1.19c-.11-.23-.25-.54-.42-.93a2.75,2.75,0,0,1-.25-.76c-.23-.68-.45-1.3-.68-1.87a5,5,0,0,1-.34-1,5.58,5.58,0,0,0-.34-1v-.68a59.9,59.9,0,0,1-1-7v-2A4.39,4.39,0,0,1,159.7,68V65.4a6.72,6.72,0,0,0,.17-2q.17-.85.51-3.06t.51-3.4q.17-1,.85-3.4c0-.11,0-.45.08-1a3.76,3.76,0,0,1,.25-1.19,3,3,0,0,1,.34-1.36A59.9,59.9,0,0,1,165,42.81a11.5,11.5,0,0,0,.85-1.7c.34-.79.57-1.36.68-1.7A24.28,24.28,0,0,1,168.87,35a7.14,7.14,0,0,1,.76-1.44q.59-.93.93-1.44a7,7,0,0,0,.34-.85,1.81,1.81,0,0,1,.34-.68,5.35,5.35,0,0,0,.34-1.1,5.07,5.07,0,0,1,.34-1.1c.23-.11.48-.25.76-.42a1.46,1.46,0,0,1,.59-.25,2.63,2.63,0,0,1,1,.34,8.81,8.81,0,0,1,.85.51A7.78,7.78,0,0,0,176,29l1.53,1q1,.68,2.72,2a3.8,3.8,0,0,0,.51.85,4.25,4.25,0,0,1,.34,1.87,5.38,5.38,0,0,1-.08.68,1.33,1.33,0,0,1-.25.68,1.88,1.88,0,0,0-.17.85v.68a3.6,3.6,0,0,0-.17,1.87,5.44,5.44,0,0,1-.08.85c-.06.34-.11.65-.17.93a3.17,3.17,0,0,1-.25.76,6.16,6.16,0,0,1,.17,2.38,2.62,2.62,0,0,0-.17,1.1,2.66,2.66,0,0,1-.17,1.1,5.54,5.54,0,0,0-.34,1.7,2.82,2.82,0,0,1-.08.68,2.71,2.71,0,0,0-.08.68l-.51,2a14.81,14.81,0,0,0-.34,2.21,5.91,5.91,0,0,1-.85,1.36v.34a7.12,7.12,0,0,1-.17,2.55,2.62,2.62,0,0,0-.17,1.1,2.66,2.66,0,0,1-.17,1.1,2.36,2.36,0,0,0-.17,1v1a3.71,3.71,0,0,1-.17.93,3.62,3.62,0,0,0-.17.93v1a1.33,1.33,0,0,1-.17.51q-.17.34,0,.51l.17.34.34-.17a11.61,11.61,0,0,0,.68-1.19q.51-.85,1.53-2.63t1.53-2.63q.68-1.36,1-2.21a8,8,0,0,1,1.19-2.21l1-1.53a7.74,7.74,0,0,1,.51-.85,8.46,8.46,0,0,0,.51-.85,4,4,0,0,1,.68-1,7.65,7.65,0,0,0,.85-1.1,12,12,0,0,0,.68-1.1,13.21,13.21,0,0,1,1.7-2.38,19.42,19.42,0,0,0,1.7-1.87q1.36-1.53,2-2.21a8.94,8.94,0,0,1,1.36-.85,9.55,9.55,0,0,1,1.1-.42,9.23,9.23,0,0,0,1.1-.42h.51a9.44,9.44,0,0,1,1.87-.34,8.6,8.6,0,0,0,1-.08,9.18,9.18,0,0,1,1-.08q.34.17,1.53.85a1.09,1.09,0,0,1,.51.68,1.08,1.08,0,0,0,.51.68,1.16,1.16,0,0,1,.51.76,1.87,1.87,0,0,0,.34.76A4.49,4.49,0,0,1,204,45.7a2.89,2.89,0,0,0,.17,1.19,8.51,8.51,0,0,1,0,2.38v1.87a9.33,9.33,0,0,0-.34,3.06,1.92,1.92,0,0,1-.17.85,7.51,7.51,0,0,1-.08.76,6.74,6.74,0,0,0-.08.93,5.49,5.49,0,0,0,.51,2.72,5.38,5.38,0,0,1-.08.68,4.91,4.91,0,0,0-.08.68v1a13.51,13.51,0,0,0-.51,1.7,2.37,2.37,0,0,1-.08.51,2.24,2.24,0,0,0-.08.51c0,.23,0,.65.08,1.27s.08,1.1.08,1.44a3.74,3.74,0,0,0-.25,1.19c-.06.57-.08,1-.08,1.19a11,11,0,0,0,.08,1.1,12.17,12.17,0,0,1,.08,1.27v1.19a6.13,6.13,0,0,0,.51,3.57V78l.17.34a.49.49,0,0,1-.17.34V79a9.88,9.88,0,0,0,.34,2.38l.34-.17.51-1a7.67,7.67,0,0,0,.68-1.36q.34-.85.51-1.36a5.09,5.09,0,0,0,.85-2.72c.11-.34.31-1,.59-1.87a14.18,14.18,0,0,1,.76-2,.83.83,0,0,0,.17-.59.83.83,0,0,1,.17-.59q.17-.34.51-1.27c.23-.62.4-1.1.51-1.44a13.91,13.91,0,0,1,.85-2.72,50,50,0,0,1,1.87-5.27,2.9,2.9,0,0,1,.17-1.19A10.25,10.25,0,0,1,213.72,55a5.72,5.72,0,0,1,.68-2.55,5.32,5.32,0,0,0,.68-1.87q.51-1.36.68-1.7a7.75,7.75,0,0,0,.68-2.55l.17-.17A2,2,0,0,1,218.48,45.87Z"/></svg>